<svg width="200" height="202" viewBox="0 0 200 202" fill="none" xmlns="http://www.w3.org/2000/svg">
  <mask id="mask0_2_4" style="mask-type:luminance" maskUnits="userSpaceOnUse" x="87" y="0"
    width="51" height="35">
    <path fill-rule="evenodd" clip-rule="evenodd"
      d="M122.955 30.5214C115.057 14.9254 101.945 0.617348 87.408 3.14801C107.12 -4.05332 122.697 1.36269 135.813 22.3054C141.779 31.8294 127.04 38.5894 122.955 30.5214Z"
      fill="white" />
  </mask>
  <g mask="url(#mask0_2_4)">
    <path
      d="M122.955 30.5214C115.057 14.9254 101.945 0.617348 87.408 3.14801C107.12 -4.05332 122.697 1.36269 135.813 22.3054C141.779 31.8294 127.04 38.5894 122.955 30.5214Z"
      fill="url(#paint0_linear_2_4)" />
  </g>
  <mask id="mask1_2_4" style="mask-type:luminance" maskUnits="userSpaceOnUse" x="127" y="88"
    width="15" height="15">
    <path fill-rule="evenodd" clip-rule="evenodd"
      d="M132.057 89.1013L133.677 88.6907C135.193 88.308 136.728 88.576 137.979 89.3187C139.231 90.0627 140.203 91.2853 140.588 92.8027C140.721 93.3307 141.093 94.6893 141.2 95.1827C141.519 96.6627 141.228 98.1413 140.492 99.344C139.757 100.551 138.572 101.484 137.109 101.876L135.665 102.264C134.908 102.467 134.16 102.517 133.429 102.417C132.697 102.319 131.989 102.068 131.311 101.668C130.257 101.048 129.545 100.127 129.028 99.1C128.543 98.1373 128.233 97.084 127.969 96.1187C127.763 95.3573 127.707 94.6067 127.801 93.8747C127.896 93.1427 128.143 92.4333 128.539 91.7547C128.936 91.072 129.433 90.5053 130.02 90.0627C130.609 89.6187 131.291 89.2947 132.057 89.1013Z"
      fill="white" />
  </mask>
  <g mask="url(#mask1_2_4)">
    <path
      d="M132.057 89.1013L133.677 88.6907C135.193 88.308 136.728 88.576 137.979 89.3187C139.231 90.0627 140.203 91.2853 140.588 92.8027C140.721 93.3307 141.093 94.6893 141.2 95.1827C141.519 96.6627 141.228 98.1413 140.492 99.344C139.757 100.551 138.572 101.484 137.109 101.876L135.665 102.264C134.908 102.467 134.16 102.517 133.429 102.417C132.697 102.319 131.989 102.068 131.311 101.668C130.257 101.048 129.545 100.127 129.028 99.1C128.543 98.1373 128.233 97.084 127.969 96.1187C127.763 95.3573 127.707 94.6067 127.801 93.8747C127.896 93.1427 128.143 92.4333 128.539 91.7547C128.936 91.072 129.433 90.5053 130.02 90.0627C130.609 89.6187 131.291 89.2947 132.057 89.1013Z"
      fill="url(#paint1_linear_2_4)" />
  </g>
  <mask id="mask2_2_4" style="mask-type:luminance" maskUnits="userSpaceOnUse" x="141" y="70"
    width="18" height="26">
    <path fill-rule="evenodd" clip-rule="evenodd"
      d="M143.272 84.7787L142.36 81.7773L141.529 79.148C141.395 78.7347 141.301 78.3133 141.248 77.8933C141.196 77.46 141.181 77.028 141.208 76.6093C141.356 74.2813 142.543 72.5 144.173 71.384C145.179 70.696 146.357 70.26 147.564 70.1054C148.772 69.9507 150.015 70.0787 151.144 70.5147C152.893 71.1867 154.373 72.5907 155.061 74.8133L155.943 77.7054L156.92 81.028L157.804 84.1734L158.489 86.7253C159.296 89.8613 158.041 92.364 156 93.8627C155.212 94.4413 154.303 94.8707 153.351 95.124C152.4 95.3774 151.401 95.4573 150.437 95.3427C147.981 95.0507 145.725 93.5133 144.881 90.3827L144.155 87.7987L143.272 84.7787Z"
      fill="white" />
  </mask>
  <g mask="url(#mask2_2_4)">
    <path
      d="M143.272 84.7787L142.36 81.7773L141.529 79.148C141.395 78.7347 141.301 78.3133 141.248 77.8933C141.196 77.46 141.181 77.028 141.208 76.6093C141.356 74.2813 142.543 72.5 144.173 71.384C145.179 70.696 146.357 70.26 147.564 70.1054C148.772 69.9507 150.015 70.0787 151.144 70.5147C152.893 71.1867 154.373 72.5907 155.061 74.8133L155.943 77.7054L156.92 81.028L157.804 84.1734L158.489 86.7253C159.296 89.8613 158.041 92.364 156 93.8627C155.212 94.4413 154.303 94.8707 153.351 95.124C152.4 95.3774 151.401 95.4573 150.437 95.3427C147.981 95.0507 145.725 93.5133 144.881 90.3827L144.155 87.7987L143.272 84.7787Z"
      fill="url(#paint2_linear_2_4)" />
  </g>
  <mask id="mask3_2_4" style="mask-type:luminance" maskUnits="userSpaceOnUse" x="129" y="35"
    width="22" height="32">
    <path fill-rule="evenodd" clip-rule="evenodd"
      d="M135.96 61.552C133.719 56.0107 131.864 51.3453 130.087 46.0347C126.356 37.1067 140.427 31.7013 144.009 40.3133C146.871 47.1813 148.081 50.056 150.261 57.1707C150.405 57.6427 150.505 58.12 150.552 58.592C151.393 66.9573 138.556 69.8147 135.96 61.552Z"
      fill="white" />
  </mask>
  <g mask="url(#mask3_2_4)">
    <path
      d="M135.96 61.552C133.719 56.0107 131.864 51.3453 130.087 46.0347C126.356 37.1067 140.427 31.7013 144.009 40.3133C146.871 47.1813 148.081 50.056 150.261 57.1707C150.405 57.6427 150.505 58.12 150.552 58.592C151.393 66.9573 138.556 69.8147 135.96 61.552Z"
      fill="url(#paint3_linear_2_4)" />
  </g>
  <mask id="mask4_2_4" style="mask-type:luminance" maskUnits="userSpaceOnUse" x="149" y="98"
    width="16" height="20">
    <path fill-rule="evenodd" clip-rule="evenodd"
      d="M149.984 107.088C147.761 99.7067 158.648 95.4734 162.113 102.105C162.315 102.485 162.477 102.893 162.599 103.319L163.303 105.681C163.673 106.899 163.823 107.381 164.397 109.819C166.129 117.169 155.4 120.867 152.2 114.212C152.009 113.819 151.853 113.395 151.744 112.952C151.107 111.135 150.487 109.284 149.984 107.088Z"
      fill="white" />
  </mask>
  <g mask="url(#mask4_2_4)">
    <path
      d="M149.984 107.088C147.761 99.7067 158.648 95.4734 162.113 102.105C162.315 102.485 162.477 102.893 162.599 103.319L163.303 105.681C163.673 106.899 163.823 107.381 164.397 109.819C166.129 117.169 155.4 120.867 152.2 114.212C152.009 113.819 151.853 113.395 151.744 112.952C151.107 111.135 150.487 109.284 149.984 107.088Z"
      fill="url(#paint4_linear_2_4)" />
  </g>
  <mask id="mask5_2_4" style="mask-type:luminance" maskUnits="userSpaceOnUse" x="70" y="5"
    width="57" height="52">
    <path fill-rule="evenodd" clip-rule="evenodd"
      d="M108.731 16.924C116.716 25.78 122.624 37.8973 126.091 47.2733C129.053 55.288 114.34 60.6747 110.745 51.5547C103.513 33.1973 94.6427 6.61334 70.0599 11.1133C84.408 1.87867 97.4627 4.42535 108.731 16.924Z"
      fill="white" />
  </mask>
  <g mask="url(#mask5_2_4)">
    <path
      d="M108.731 16.924C116.716 25.78 122.624 37.8973 126.091 47.2733C129.053 55.288 114.34 60.6747 110.745 51.5547C103.513 33.1973 94.6427 6.61334 70.0599 11.1133C84.408 1.87867 97.4627 4.42535 108.731 16.924Z"
      fill="url(#paint5_linear_2_4)" />
  </g>
  <mask id="mask6_2_4" style="mask-type:luminance" maskUnits="userSpaceOnUse" x="16" y="14"
    width="84" height="58">
    <path fill-rule="evenodd" clip-rule="evenodd"
      d="M35.5693 53.52C33.5839 56.5174 31.7473 59.288 30.0688 61.604C30.1817 61.9214 30.2719 62.2454 30.3364 62.572C30.4292 63.0427 30.4751 63.54 30.4677 64.056C30.4396 66.0094 29.6218 67.764 28.3254 69.0214C27.0286 70.2827 25.2495 71.048 23.3016 71.0187C21.3479 70.9907 19.5921 70.1733 18.3339 68.876C17.0755 67.5787 16.3088 65.8 16.3355 63.8507C16.3656 61.8987 17.1828 60.14 18.4812 58.8827C19.7781 57.624 21.5568 56.8587 23.5046 56.8894C23.7682 56.892 24.0156 56.9094 24.2417 56.9347L24.438 56.9613C27.1604 53.4627 29.9 49.6053 32.6765 45.6933C39.0254 36.7493 45.5864 27.508 52.8088 21.352C70.2202 6.50802 91.4053 16.5894 99.2266 31.0694C84.0186 15.8 67.8973 13.7147 53.7251 29.8387C47.2912 37.156 40.6588 45.8374 35.5693 53.52ZM23.2271 61.4293H23.2084C22.5484 61.476 21.9562 61.7814 21.5369 62.2374C21.1021 62.712 20.8458 63.3574 20.8713 64.0494L20.8787 64.136C20.9245 64.8 21.226 65.392 21.6875 65.8174C22.164 66.2547 22.8079 66.5134 23.5063 66.4854L23.5765 66.48C24.2432 66.4333 24.8374 66.1307 25.264 65.668C25.7021 65.192 25.9599 64.5467 25.9323 63.8467L25.924 63.776C25.8807 63.1053 25.5745 62.5094 25.1167 62.088C24.6412 61.652 23.9942 61.3947 23.2973 61.4214L23.2271 61.4293Z"
      fill="white" />
  </mask>
  <g mask="url(#mask6_2_4)">
    <path
      d="M35.5693 53.52C33.5839 56.5174 31.7473 59.288 30.0688 61.604C30.1817 61.9214 30.2719 62.2454 30.3364 62.572C30.4292 63.0427 30.4751 63.54 30.4677 64.056C30.4396 66.0094 29.6218 67.764 28.3254 69.0214C27.0286 70.2827 25.2495 71.048 23.3016 71.0187C21.3479 70.9907 19.5921 70.1733 18.3339 68.876C17.0755 67.5787 16.3088 65.8 16.3355 63.8507C16.3656 61.8987 17.1828 60.14 18.4812 58.8827C19.7781 57.624 21.5568 56.8587 23.5046 56.8894C23.7682 56.892 24.0156 56.9094 24.2417 56.9347L24.438 56.9613C27.1604 53.4627 29.9 49.6053 32.6765 45.6933C39.0254 36.7493 45.5864 27.508 52.8088 21.352C70.2202 6.50802 91.4053 16.5894 99.2266 31.0694C84.0186 15.8 67.8973 13.7147 53.7251 29.8387C47.2912 37.156 40.6588 45.8374 35.5693 53.52ZM23.2271 61.4293H23.2084C22.5484 61.476 21.9562 61.7814 21.5369 62.2374C21.1021 62.712 20.8458 63.3574 20.8713 64.0494L20.8787 64.136C20.9245 64.8 21.226 65.392 21.6875 65.8174C22.164 66.2547 22.8079 66.5134 23.5063 66.4854L23.5765 66.48C24.2432 66.4333 24.8374 66.1307 25.264 65.668C25.7021 65.192 25.9599 64.5467 25.9323 63.8467L25.924 63.776C25.8807 63.1053 25.5745 62.5094 25.1167 62.088C24.6412 61.652 23.9942 61.3947 23.2973 61.4214L23.2271 61.4293Z"
      fill="url(#paint6_linear_2_4)" />
  </g>
  <mask id="mask7_2_4" style="mask-type:luminance" maskUnits="userSpaceOnUse" x="38" y="21"
    width="67" height="40">
    <path fill-rule="evenodd" clip-rule="evenodd"
      d="M40.6844 49.9693C41.788 48.768 43.3479 47.9853 45.1027 47.8973L45.8459 46.8987C51.8697 38.796 57.9557 30.6107 64.638 25.8827C80.6186 14.5813 97.5306 29.7547 104.781 42.552C95.3813 33.536 82.7427 20.1213 68.3208 31.6853C63.8609 35.2627 59.6604 40.5373 55.465 45.8053C54.027 47.612 52.5869 49.42 51.0683 51.2387C51.2516 51.572 51.4063 51.924 51.5292 52.292C51.7151 52.852 51.8281 53.4467 51.8527 54.06C51.926 55.8347 51.2713 57.4733 50.1584 58.684C49.0448 59.8947 47.4661 60.6813 45.688 60.756C43.9145 60.8293 42.2751 60.176 41.064 59.0613C39.8527 57.948 39.0656 56.368 38.9912 54.592C38.9183 52.8173 39.5708 51.18 40.6844 49.9693ZM45.2473 51.8013H45.2287C44.5688 51.8467 43.9765 52.152 43.5573 52.608C43.1219 53.0813 42.8661 53.7267 42.8917 54.4213L42.8989 54.5053C42.9443 55.172 43.2464 55.764 43.7073 56.188C44.1823 56.6267 44.8276 56.8853 45.526 56.8573L45.5964 56.8507C46.2636 56.8067 46.8573 56.5027 47.2844 56.04C47.7219 55.564 47.9797 54.916 47.9511 54.2187L47.9437 54.148C47.9011 53.4773 47.5943 52.8813 47.1369 52.4613C46.6615 52.0227 46.0145 51.7653 45.3172 51.7933L45.2473 51.8013Z"
      fill="white" />
  </mask>
  <g mask="url(#mask7_2_4)">
    <path
      d="M40.6844 49.9693C41.788 48.768 43.3479 47.9853 45.1027 47.8973L45.8459 46.8987C51.8697 38.796 57.9557 30.6107 64.638 25.8827C80.6186 14.5813 97.5306 29.7547 104.781 42.552C95.3813 33.536 82.7427 20.1213 68.3208 31.6853C63.8609 35.2627 59.6604 40.5373 55.465 45.8053C54.027 47.612 52.5869 49.42 51.0683 51.2387C51.2516 51.572 51.4063 51.924 51.5292 52.292C51.7151 52.852 51.8281 53.4467 51.8527 54.06C51.926 55.8347 51.2713 57.4733 50.1584 58.684C49.0448 59.8947 47.4661 60.6813 45.688 60.756C43.9145 60.8293 42.2751 60.176 41.064 59.0613C39.8527 57.948 39.0656 56.368 38.9912 54.592C38.9183 52.8173 39.5708 51.18 40.6844 49.9693ZM45.2473 51.8013H45.2287C44.5688 51.8467 43.9765 52.152 43.5573 52.608C43.1219 53.0813 42.8661 53.7267 42.8917 54.4213L42.8989 54.5053C42.9443 55.172 43.2464 55.764 43.7073 56.188C44.1823 56.6267 44.8276 56.8853 45.526 56.8573L45.5964 56.8507C46.2636 56.8067 46.8573 56.5027 47.2844 56.04C47.7219 55.564 47.9797 54.916 47.9511 54.2187L47.9437 54.148C47.9011 53.4773 47.5943 52.8813 47.1369 52.4613C46.6615 52.0227 46.0145 51.7653 45.3172 51.7933L45.2473 51.8013Z"
      fill="url(#paint7_linear_2_4)" />
  </g>
  <mask id="mask8_2_4" style="mask-type:luminance" maskUnits="userSpaceOnUse" x="117" y="60"
    width="19" height="26">
    <path fill-rule="evenodd" clip-rule="evenodd"
      d="M119.884 74.9213L118.869 71.952L117.951 69.3533C117.803 68.944 117.693 68.5267 117.625 68.108C117.559 67.6787 117.531 67.2467 117.543 66.8267C117.611 64.4947 118.736 62.6733 120.327 61.504C121.309 60.7813 122.472 60.3053 123.673 60.1093C124.873 59.9147 126.12 60 127.265 60.3973C129.035 61.0093 130.563 62.3613 131.327 64.5587L132.307 67.4187L133.396 70.7067L134.387 73.82L135.159 76.348C136.072 79.4533 134.903 81.9973 132.913 83.5653C132.145 84.1707 131.251 84.6307 130.308 84.916C129.367 85.2013 128.372 85.3173 127.405 85.236C124.94 85.0267 122.633 83.5667 121.683 80.4667L120.869 77.9093L119.884 74.9213Z"
      fill="white" />
  </mask>
  <g mask="url(#mask8_2_4)">
    <path
      d="M119.884 74.9213L118.869 71.952L117.951 69.3533C117.803 68.944 117.693 68.5267 117.625 68.108C117.559 67.6787 117.531 67.2467 117.543 66.8267C117.611 64.4947 118.736 62.6733 120.327 61.504C121.309 60.7813 122.472 60.3053 123.673 60.1093C124.873 59.9147 126.12 60 127.265 60.3973C129.035 61.0093 130.563 62.3613 131.327 64.5587L132.307 67.4187L133.396 70.7067L134.387 73.82L135.159 76.348C136.072 79.4533 134.903 81.9973 132.913 83.5653C132.145 84.1707 131.251 84.6307 130.308 84.916C129.367 85.2013 128.372 85.3173 127.405 85.236C124.94 85.0267 122.633 83.5667 121.683 80.4667L120.869 77.9093L119.884 74.9213Z"
      fill="url(#paint8_linear_2_4)" />
  </g>
  <mask id="mask9_2_4" style="mask-type:luminance" maskUnits="userSpaceOnUse" x="148" y="148"
    width="50" height="33">
    <path fill-rule="evenodd" clip-rule="evenodd"
      d="M155.54 165.59C172.995 166.549 191.941 162.348 197.019 148.493C193.399 169.164 180.92 179.946 156.225 180.834C144.995 181.239 146.509 165.094 155.54 165.59Z"
      fill="white" />
  </mask>
  <g mask="url(#mask9_2_4)">
    <path
      d="M155.54 165.59C172.995 166.549 191.941 162.348 197.019 148.493C193.399 169.164 180.92 179.946 156.225 180.834C144.995 181.239 146.509 165.094 155.54 165.59Z"
      fill="url(#paint9_linear_2_4)" />
  </g>
  <mask id="mask10_2_4" style="mask-type:luminance" maskUnits="userSpaceOnUse" x="86" y="136"
    width="15" height="14">
    <path fill-rule="evenodd" clip-rule="evenodd"
      d="M100.256 144.182L99.8013 145.791C99.376 147.296 98.376 148.491 97.1066 149.202C95.8373 149.916 94.292 150.145 92.7853 149.72C92.2613 149.572 90.8986 149.215 90.4186 149.059C88.9773 148.596 87.8413 147.606 87.168 146.367C86.4906 145.127 86.2746 143.634 86.6666 142.171L87.0533 140.727C87.2573 139.969 87.5866 139.296 88.0386 138.713C88.4893 138.13 89.0613 137.642 89.7466 137.253C90.8093 136.651 91.964 136.495 93.112 136.56C94.188 136.622 95.2546 136.88 96.224 137.134C96.9853 137.336 97.664 137.662 98.2506 138.11C98.8373 138.559 99.328 139.128 99.7186 139.809C100.112 140.494 100.353 141.208 100.443 141.939C100.532 142.67 100.472 143.422 100.256 144.182Z"
      fill="white" />
  </mask>
  <g mask="url(#mask10_2_4)">
    <path
      d="M100.256 144.182L99.8013 145.791C99.376 147.296 98.376 148.491 97.1066 149.202C95.8373 149.916 94.292 150.145 92.7853 149.72C92.2613 149.572 90.8986 149.215 90.4186 149.059C88.9773 148.596 87.8413 147.606 87.168 146.367C86.4906 145.127 86.2746 143.634 86.6666 142.171L87.0533 140.727C87.2573 139.969 87.5866 139.296 88.0386 138.713C88.4893 138.13 89.0613 137.642 89.7466 137.253C90.8093 136.651 91.964 136.495 93.112 136.56C94.188 136.622 95.2546 136.88 96.224 137.134C96.9853 137.336 97.664 137.662 98.2506 138.11C98.8373 138.559 99.328 139.128 99.7186 139.809C100.112 140.494 100.353 141.208 100.443 141.939C100.532 142.67 100.472 143.422 100.256 144.182Z"
      fill="url(#paint10_linear_2_4)" />
  </g>
  <mask id="mask11_2_4" style="mask-type:luminance" maskUnits="userSpaceOnUse" x="84" y="154"
    width="26" height="18">
    <path fill-rule="evenodd" clip-rule="evenodd"
      d="M98.392 156.057L101.448 156.767L104.14 157.363C104.564 157.454 104.977 157.583 105.368 157.747C105.769 157.918 106.149 158.122 106.5 158.354C108.443 159.646 109.391 161.565 109.541 163.534C109.636 164.749 109.423 165.988 108.953 167.111C108.484 168.233 107.752 169.245 106.809 170.007C105.352 171.184 103.397 171.765 101.128 171.25L98.1826 170.568L94.8173 169.752L91.6506 168.945L89.0973 168.263C85.9786 167.393 84.4386 165.055 84.1613 162.537C84.0546 161.566 84.1373 160.563 84.3946 159.611C84.6506 158.663 85.08 157.757 85.6613 156.98C87.1426 154.999 89.6013 153.814 92.7347 154.648L95.336 155.311L98.392 156.057Z"
      fill="white" />
  </mask>
  <g mask="url(#mask11_2_4)">
    <path
      d="M98.392 156.057L101.448 156.767L104.14 157.363C104.564 157.454 104.977 157.583 105.368 157.747C105.769 157.918 106.149 158.122 106.5 158.354C108.443 159.646 109.391 161.565 109.541 163.534C109.636 164.749 109.423 165.988 108.953 167.111C108.484 168.233 107.752 169.245 106.809 170.007C105.352 171.184 103.397 171.765 101.128 171.25L98.1826 170.568L94.8173 169.752L91.6506 168.945L89.0973 168.263C85.9786 167.393 84.4386 165.055 84.1613 162.537C84.0546 161.566 84.1373 160.563 84.3946 159.611C84.6506 158.663 85.08 157.757 85.6613 156.98C87.1426 154.999 89.6013 153.814 92.7347 154.648L95.336 155.311L98.392 156.057Z"
      fill="url(#paint11_linear_2_4)" />
  </g>
  <mask id="mask12_2_4" style="mask-type:luminance" maskUnits="userSpaceOnUse" x="113" y="161"
    width="32" height="18">
    <path fill-rule="evenodd" clip-rule="evenodd"
      d="M122.163 161.337C128.083 162.168 133.051 162.893 138.539 164.01C148.136 165.243 145.781 180.132 136.532 178.928C129.153 177.972 126.059 177.583 118.808 175.914C118.325 175.803 117.863 175.65 117.431 175.455C109.765 172.001 113.709 159.455 122.163 161.337Z"
      fill="white" />
  </mask>
  <g mask="url(#mask12_2_4)">
    <path
      d="M122.163 161.337C128.083 162.168 133.051 162.893 138.539 164.01C148.136 165.243 145.781 180.132 136.532 178.928C129.153 177.972 126.059 177.583 118.808 175.914C118.325 175.803 117.863 175.65 117.431 175.455C109.765 172.001 113.709 159.455 122.163 161.337Z"
      fill="url(#paint12_linear_2_4)" />
  </g>
  <mask id="mask13_2_4" style="mask-type:luminance" maskUnits="userSpaceOnUse" x="61" y="149"
    width="20" height="15">
    <path fill-rule="evenodd" clip-rule="evenodd"
      d="M75.7173 150.715C83.22 152.481 81.4427 164.025 73.9667 163.711C73.5373 163.695 73.1027 163.632 72.6729 163.525L70.2755 162.953C69.0349 162.666 68.5432 162.553 66.1437 161.832C58.9125 159.657 61.0751 148.516 68.4385 149.071C68.874 149.103 69.3188 149.18 69.7584 149.307C71.6511 149.664 73.5627 150.052 75.7173 150.715Z"
      fill="white" />
  </mask>
  <g mask="url(#mask13_2_4)">
    <path
      d="M75.7173 150.715C83.22 152.481 81.4427 164.025 73.9667 163.711C73.5373 163.695 73.1027 163.632 72.6729 163.525L70.2755 162.953C69.0349 162.666 68.5432 162.553 66.1437 161.832C58.9125 159.657 61.0751 148.516 68.4385 149.071C68.874 149.103 69.3188 149.18 69.7584 149.307C71.6511 149.664 73.5627 150.052 75.7173 150.715Z"
      fill="url(#paint13_linear_2_4)" />
  </g>
  <mask id="mask14_2_4" style="mask-type:luminance" maskUnits="userSpaceOnUse" x="134" y="129"
    width="65" height="33">
    <path fill-rule="evenodd" clip-rule="evenodd"
      d="M174.427 160.071C162.764 162.558 149.316 161.616 139.463 159.929C131.041 158.489 133.733 143.052 143.429 144.5C162.943 147.415 190.401 153.025 198.795 129.486C199.619 146.53 190.885 156.562 174.427 160.071Z"
      fill="white" />
  </mask>
  <g mask="url(#mask14_2_4)">
    <path
      d="M174.427 160.071C162.764 162.558 149.316 161.616 139.463 159.929C131.041 158.489 133.733 143.052 143.429 144.5C162.943 147.415 190.401 153.025 198.795 129.486C199.619 146.53 190.885 156.562 174.427 160.071Z"
      fill="url(#paint14_linear_2_4)" />
  </g>
  <mask id="mask15_2_4" style="mask-type:luminance" maskUnits="userSpaceOnUse" x="166" y="55"
    width="34" height="90">
    <path fill-rule="evenodd" clip-rule="evenodd"
      d="M179.315 78.4133C177.712 75.1947 176.231 72.2187 175.064 69.6067C174.732 69.5467 174.407 69.4627 174.092 69.3547C173.637 69.2 173.184 68.9907 172.741 68.728C171.064 67.7253 169.952 66.14 169.512 64.388C169.068 62.6347 169.296 60.712 170.295 59.04C171.296 57.3614 172.881 56.2494 174.633 55.808C176.385 55.3667 178.311 55.5934 179.985 56.5907C181.66 57.5934 182.773 59.1787 183.215 60.9333C183.657 62.6853 183.429 64.608 182.429 66.28C182.295 66.5067 182.156 66.712 182.021 66.8947L181.9 67.052C183.569 71.16 185.54 75.46 187.539 79.8213C192.109 89.7907 196.833 100.095 198.553 109.427C202.703 131.927 183.38 145.233 166.929 144.767C187.756 139.232 197.624 126.312 190.745 105.977C187.625 96.7467 183.424 86.6613 179.315 78.4133ZM178.636 63.7693L178.645 63.7534C178.935 63.1587 178.967 62.4933 178.781 61.9013C178.588 61.288 178.157 60.7427 177.545 60.4187L177.467 60.3827C176.869 60.0907 176.205 60.0547 175.605 60.2427C174.988 60.436 174.443 60.864 174.117 61.4827L174.088 61.5467C173.793 62.148 173.76 62.8133 173.947 63.4147C174.14 64.0307 174.571 64.5774 175.191 64.904L175.255 64.9307C175.857 65.2293 176.527 65.2627 177.12 65.076C177.736 64.8827 178.283 64.452 178.607 63.8347L178.636 63.7693Z"
      fill="white" />
  </mask>
  <g mask="url(#mask15_2_4)">
    <path
      d="M179.315 78.4133C177.712 75.1947 176.231 72.2187 175.064 69.6067C174.732 69.5467 174.407 69.4627 174.092 69.3547C173.637 69.2 173.184 68.9907 172.741 68.728C171.064 67.7253 169.952 66.14 169.512 64.388C169.068 62.6347 169.296 60.712 170.295 59.04C171.296 57.3614 172.881 56.2494 174.633 55.808C176.385 55.3667 178.311 55.5934 179.985 56.5907C181.66 57.5934 182.773 59.1787 183.215 60.9333C183.657 62.6853 183.429 64.608 182.429 66.28C182.295 66.5067 182.156 66.712 182.021 66.8947L181.9 67.052C183.569 71.16 185.54 75.46 187.539 79.8213C192.109 89.7907 196.833 100.095 198.553 109.427C202.703 131.927 183.38 145.233 166.929 144.767C187.756 139.232 197.624 126.312 190.745 105.977C187.625 96.7467 183.424 86.6613 179.315 78.4133ZM178.636 63.7693L178.645 63.7534C178.935 63.1587 178.967 62.4933 178.781 61.9013C178.588 61.288 178.157 60.7427 177.545 60.4187L177.467 60.3827C176.869 60.0907 176.205 60.0547 175.605 60.2427C174.988 60.436 174.443 60.864 174.117 61.4827L174.088 61.5467C173.793 62.148 173.76 62.8133 173.947 63.4147C174.14 64.0307 174.571 64.5774 175.191 64.904L175.255 64.9307C175.857 65.2293 176.527 65.2627 177.12 65.076C177.736 64.8827 178.283 64.452 178.607 63.8347L178.636 63.7693Z"
      fill="url(#paint15_linear_2_4)" />
  </g>
  <mask id="mask16_2_4" style="mask-type:luminance" maskUnits="userSpaceOnUse" x="154" y="80"
    width="35" height="64">
    <path fill-rule="evenodd" clip-rule="evenodd"
      d="M179.833 84.6187C180.32 86.1747 180.219 87.916 179.417 89.48L179.911 90.6227C183.916 99.8907 187.961 109.255 188.715 117.405C190.512 136.895 168.916 143.955 154.207 143.836C166.717 140.203 184.652 135.965 181.848 117.693C180.98 112.043 178.513 105.768 176.048 99.5C175.203 97.352 174.356 95.2 173.541 92.976C173.16 92.968 172.779 92.9267 172.399 92.848C171.82 92.7293 171.248 92.5307 170.705 92.2453C169.132 91.4213 168.04 90.0347 167.548 88.4653C167.056 86.8947 167.164 85.1347 167.988 83.5573C168.812 81.9853 170.197 80.892 171.768 80.4C173.339 79.908 175.1 80.0173 176.676 80.84C178.249 81.664 179.34 83.048 179.833 84.6187ZM175.964 87.6533L175.973 87.6373C176.264 87.0427 176.296 86.3787 176.111 85.7867C175.917 85.172 175.487 84.628 174.873 84.3027L174.796 84.2667C174.197 83.9733 173.533 83.9387 172.936 84.1267C172.317 84.3187 171.772 84.7493 171.445 85.3667L171.417 85.4307C171.121 86.0307 171.088 86.6973 171.275 87.2973C171.468 87.916 171.9 88.4627 172.519 88.7867L172.584 88.8147C173.187 89.1147 173.855 89.1467 174.448 88.96C175.065 88.768 175.612 88.336 175.936 87.7187L175.964 87.6533Z"
      fill="white" />
  </mask>
  <g mask="url(#mask16_2_4)">
    <path
      d="M179.833 84.6187C180.32 86.1747 180.219 87.916 179.417 89.48L179.911 90.6227C183.916 99.8907 187.961 109.255 188.715 117.405C190.512 136.895 168.916 143.955 154.207 143.836C166.717 140.203 184.652 135.965 181.848 117.693C180.98 112.043 178.513 105.768 176.048 99.5C175.203 97.352 174.356 95.2 173.541 92.976C173.16 92.968 172.779 92.9267 172.399 92.848C171.82 92.7293 171.248 92.5307 170.705 92.2453C169.132 91.4213 168.04 90.0347 167.548 88.4653C167.056 86.8947 167.164 85.1347 167.988 83.5573C168.812 81.9853 170.197 80.892 171.768 80.4C173.339 79.908 175.1 80.0173 176.676 80.84C178.249 81.664 179.34 83.048 179.833 84.6187ZM175.964 87.6533L175.973 87.6373C176.264 87.0427 176.296 86.3787 176.111 85.7867C175.917 85.172 175.487 84.628 174.873 84.3027L174.796 84.2667C174.197 83.9733 173.533 83.9387 172.936 84.1267C172.317 84.3187 171.772 84.7493 171.445 85.3667L171.417 85.4307C171.121 86.0307 171.088 86.6973 171.275 87.2973C171.468 87.916 171.9 88.4627 172.519 88.7867L172.584 88.8147C173.187 89.1147 173.855 89.1467 174.448 88.96C175.065 88.768 175.612 88.336 175.936 87.7187L175.964 87.6533Z"
      fill="url(#paint16_linear_2_4)" />
  </g>
  <mask id="mask17_2_4" style="mask-type:luminance" maskUnits="userSpaceOnUse" x="104" y="139"
    width="27" height="17">
    <path fill-rule="evenodd" clip-rule="evenodd"
      d="M118.623 140.731L121.703 141.336L124.412 141.84C124.84 141.916 125.257 142.031 125.652 142.182C126.059 142.339 126.447 142.53 126.804 142.751C128.791 143.975 129.803 145.861 130.021 147.823C130.156 149.035 129.987 150.28 129.556 151.418C129.125 152.556 128.427 153.592 127.511 154.385C126.096 155.611 124.161 156.259 121.876 155.822L118.909 155.24L115.517 154.54L112.325 153.841L109.751 153.246C106.604 152.484 104.985 150.199 104.623 147.693C104.481 146.725 104.531 145.72 104.755 144.76C104.979 143.803 105.376 142.884 105.931 142.087C107.344 140.057 109.761 138.789 112.921 139.516L115.543 140.09L118.623 140.731Z"
      fill="white" />
  </mask>
  <g mask="url(#mask17_2_4)">
    <path
      d="M118.623 140.731L121.703 141.336L124.412 141.84C124.84 141.916 125.257 142.031 125.652 142.182C126.059 142.339 126.447 142.53 126.804 142.751C128.791 143.975 129.803 145.861 130.021 147.823C130.156 149.035 129.987 150.28 129.556 151.418C129.125 152.556 128.427 153.592 127.511 154.385C126.096 155.611 124.161 156.259 121.876 155.822L118.909 155.24L115.517 154.54L112.325 153.841L109.751 153.246C106.604 152.484 104.985 150.199 104.623 147.693C104.481 146.725 104.531 145.72 104.755 144.76C104.979 143.803 105.376 142.884 105.931 142.087C107.344 140.057 109.761 138.789 112.921 139.516L115.543 140.09L118.623 140.731Z"
      fill="url(#paint17_linear_2_4)" />
  </g>
  <mask id="mask18_2_4" style="mask-type:luminance" maskUnits="userSpaceOnUse" x="0" y="113"
    width="23" height="57">
    <path fill-rule="evenodd" clip-rule="evenodd"
      d="M21.3781 125.304C11.8203 139.941 5.98546 158.449 15.4453 169.775C-0.646939 156.305 -3.74428 140.107 7.83386 118.276C13.0989 108.348 26.3229 117.731 21.3781 125.304Z"
      fill="white" />
  </mask>
  <g mask="url(#mask18_2_4)">
    <path
      d="M21.3781 125.304C11.8203 139.941 5.98546 158.449 15.4453 169.775C-0.646939 156.305 -3.74428 140.107 7.83386 118.276C13.0989 108.348 26.3229 117.731 21.3781 125.304Z"
      fill="url(#paint18_linear_2_4)" />
  </g>
  <mask id="mask19_2_4" style="mask-type:luminance" maskUnits="userSpaceOnUse" x="64" y="75"
    width="15" height="15">
    <path fill-rule="evenodd" clip-rule="evenodd"
      d="M67.5593 88.1307L66.3937 86.9333C65.3036 85.812 64.7688 84.348 64.7869 82.8947C64.8041 81.4373 65.3781 79.984 66.4995 78.8933C66.8891 78.512 67.8803 77.512 68.2547 77.1733C69.3765 76.1573 70.8016 75.668 72.212 75.7053C73.624 75.7387 75.0253 76.2973 76.096 77.3693L77.1534 78.4253C77.708 78.98 78.1267 79.6013 78.4054 80.284C78.6854 80.9667 78.8213 81.7067 78.8147 82.4947C78.8053 83.716 78.3627 84.7933 77.7333 85.7547C77.1413 86.656 76.384 87.4507 75.6787 88.1627C75.124 88.7213 74.5027 89.1453 73.8213 89.4293C73.1385 89.7133 72.4011 89.8547 71.6156 89.852C70.8255 89.8493 70.0869 89.7027 69.4093 89.4147C68.7307 89.1267 68.1099 88.6973 67.5593 88.1307Z"
      fill="white" />
  </mask>
  <g mask="url(#mask19_2_4)">
    <path
      d="M67.5593 88.1307L66.3937 86.9333C65.3036 85.812 64.7688 84.348 64.7869 82.8947C64.8041 81.4373 65.3781 79.984 66.4995 78.8933C66.8891 78.512 67.8803 77.512 68.2547 77.1733C69.3765 76.1573 70.8016 75.668 72.212 75.7053C73.624 75.7387 75.0253 76.2973 76.096 77.3693L77.1534 78.4253C77.708 78.98 78.1267 79.6013 78.4054 80.284C78.6854 80.9667 78.8213 81.7067 78.8147 82.4947C78.8053 83.716 78.3627 84.7933 77.7333 85.7547C77.1413 86.656 76.384 87.4507 75.6787 88.1627C75.124 88.7213 74.5027 89.1453 73.8213 89.4293C73.1385 89.7133 72.4011 89.8547 71.6156 89.852C70.8255 89.8493 70.0869 89.7027 69.4093 89.4147C68.7307 89.1267 68.1099 88.6973 67.5593 88.1307Z"
      fill="url(#paint19_linear_2_4)" />
  </g>
  <mask id="mask20_2_4" style="mask-type:luminance" maskUnits="userSpaceOnUse" x="41" y="64"
    width="24" height="24">
    <path fill-rule="evenodd" clip-rule="evenodd"
      d="M58.2079 80.5787L56.0651 82.8707L54.2031 84.904C53.912 85.2267 53.5938 85.52 53.2568 85.776C52.9084 86.0373 52.5412 86.2653 52.1646 86.452C50.074 87.488 47.9386 87.3507 46.1579 86.4973C45.0584 85.9707 44.0922 85.1667 43.3542 84.1987C42.6167 83.2307 42.1068 82.0907 41.9188 80.8947C41.6271 79.044 42.1022 77.06 43.6823 75.352L45.7459 73.1427L48.1355 70.636L50.4172 68.2973L52.285 66.428C54.597 64.1613 57.3918 63.9973 59.7104 65.0147C60.6058 65.4093 61.4328 65.9813 62.1282 66.68C62.8224 67.376 63.3918 68.2 63.7746 69.092C64.749 71.3653 64.5459 74.088 62.2563 76.384L60.3812 78.3053L58.2079 80.5787Z"
      fill="white" />
  </mask>
  <g mask="url(#mask20_2_4)">
    <path
      d="M58.2079 80.5787L56.0651 82.8707L54.2031 84.904C53.912 85.2267 53.5938 85.52 53.2568 85.776C52.9084 86.0373 52.5412 86.2653 52.1646 86.452C50.074 87.488 47.9386 87.3507 46.1579 86.4973C45.0584 85.9707 44.0922 85.1667 43.3542 84.1987C42.6167 83.2307 42.1068 82.0907 41.9188 80.8947C41.6271 79.044 42.1022 77.06 43.6823 75.352L45.7459 73.1427L48.1355 70.636L50.4172 68.2973L52.285 66.428C54.597 64.1613 57.3918 63.9973 59.7104 65.0147C60.6058 65.4093 61.4328 65.9813 62.1282 66.68C62.8224 67.376 63.3918 68.2 63.7746 69.092C64.749 71.3653 64.5459 74.088 62.2563 76.384L60.3812 78.3053L58.2079 80.5787Z"
      fill="url(#paint20_linear_2_4)" />
  </g>
  <mask id="mask21_2_4" style="mask-type:luminance" maskUnits="userSpaceOnUse" x="17" y="86"
    width="27" height="29">
    <path fill-rule="evenodd" clip-rule="evenodd"
      d="M41.7494 98.5253C38.0702 103.237 34.9578 107.176 31.2473 111.369C25.3806 119.065 13.664 109.581 19.3312 102.175C23.8489 96.2613 25.7322 93.776 30.8041 88.332C31.1406 87.9693 31.5046 87.6453 31.889 87.368C38.7136 82.4573 47.6068 92.1453 41.7494 98.5253Z"
      fill="white" />
  </mask>
  <g mask="url(#mask21_2_4)">
    <path
      d="M41.7494 98.5253C38.0702 103.237 34.9578 107.176 31.2473 111.369C25.3806 119.065 13.664 109.581 19.3312 102.175C23.8489 96.2613 25.7322 93.776 30.8041 88.332C31.1406 87.9693 31.5046 87.6453 31.889 87.368C38.7136 82.4573 47.6068 92.1453 41.7494 98.5253Z"
      fill="url(#paint21_linear_2_4)" />
  </g>
  <mask id="mask22_2_4" style="mask-type:luminance" maskUnits="userSpaceOnUse" x="62" y="48"
    width="19" height="18">
    <path fill-rule="evenodd" clip-rule="evenodd"
      d="M74.172 63.6133C68.8912 69.228 59.7823 61.916 63.7917 55.6C64.0208 55.236 64.2921 54.8907 64.5995 54.572L66.2943 52.7813C67.1636 51.8507 67.5068 51.4813 69.3307 49.764C74.8293 44.5893 83.3973 52.032 79.2347 58.132C78.9893 58.4933 78.7 58.84 78.3693 59.1573C77.1147 60.6173 75.8227 62.0787 74.172 63.6133Z"
      fill="white" />
  </mask>
  <g mask="url(#mask22_2_4)">
    <path
      d="M74.172 63.6133C68.8912 69.228 59.7823 61.916 63.7917 55.6C64.0208 55.236 64.2921 54.8907 64.5995 54.572L66.2943 52.7813C67.1636 51.8507 67.5068 51.4813 69.3307 49.764C74.8293 44.5893 83.3973 52.032 79.2347 58.132C78.9893 58.4933 78.7 58.84 78.3693 59.1573C77.1147 60.6173 75.8227 62.0787 74.172 63.6133Z"
      fill="url(#paint22_linear_2_4)" />
  </g>
  <mask id="mask23_2_4" style="mask-type:luminance" maskUnits="userSpaceOnUse" x="14" y="112"
    width="34" height="69">
    <path fill-rule="evenodd" clip-rule="evenodd"
      d="M16.714 144.42C20.3917 133.077 27.9312 121.901 34.3188 114.212C39.777 107.639 51.7994 117.688 45.6984 125.361C33.4177 140.803 14.8292 161.777 31.0177 180.816C15.8458 173.007 11.524 160.429 16.714 144.42Z"
      fill="white" />
  </mask>
  <g mask="url(#mask23_2_4)">
    <path
      d="M16.714 144.42C20.3917 133.077 27.9312 121.901 34.3188 114.212C39.777 107.639 51.7994 117.688 45.6984 125.361C33.4177 140.803 14.8292 161.777 31.0177 180.816C15.8458 173.007 11.524 160.429 16.714 144.42Z"
      fill="url(#paint23_linear_2_4)" />
  </g>
  <mask id="mask24_2_4" style="mask-type:luminance" maskUnits="userSpaceOnUse" x="28" y="145"
    width="80" height="57">
    <path fill-rule="evenodd" clip-rule="evenodd"
      d="M84.988 189.483C88.576 189.703 91.8946 189.908 94.7386 190.204C94.9573 189.947 95.1933 189.707 95.4453 189.488C95.8066 189.172 96.2133 188.884 96.6626 188.633C98.3693 187.681 100.297 187.511 102.036 188.005C103.776 188.497 105.327 189.656 106.276 191.357C107.228 193.064 107.399 194.993 106.905 196.731C106.411 198.469 105.253 200.022 103.552 200.974C101.847 201.924 99.9146 202.095 98.1759 201.6C96.4373 201.107 94.8853 199.948 93.9386 198.246C93.8093 198.017 93.6999 197.793 93.6093 197.585L93.5333 197.402C89.1426 196.793 84.4333 196.349 79.6573 195.901C68.7369 194.875 57.4526 193.813 48.5104 190.636C26.9494 182.98 25.0874 159.593 33.7166 145.579C28.0969 166.384 34.3521 181.389 55.4016 185.601C64.9557 187.513 75.7893 188.917 84.988 189.483ZM98.0093 196.217L98.0186 196.232C98.3893 196.781 98.9493 197.141 99.5546 197.276C100.183 197.416 100.869 197.315 101.457 196.946L101.527 196.897C102.079 196.525 102.441 195.968 102.579 195.356C102.72 194.725 102.621 194.037 102.248 193.446L102.209 193.389C101.836 192.834 101.276 192.471 100.661 192.333C100.031 192.192 99.3426 192.292 98.7506 192.665L98.6933 192.708C98.1333 193.08 97.7706 193.644 97.636 194.251C97.4946 194.88 97.5946 195.569 97.968 196.159L98.0093 196.217Z"
      fill="white" />
  </mask>
  <g mask="url(#mask24_2_4)">
    <path
      d="M84.988 189.483C88.576 189.703 91.8946 189.908 94.7386 190.204C94.9573 189.947 95.1933 189.707 95.4453 189.488C95.8066 189.172 96.2133 188.884 96.6626 188.633C98.3693 187.681 100.297 187.511 102.036 188.005C103.776 188.497 105.327 189.656 106.276 191.357C107.228 193.064 107.399 194.993 106.905 196.731C106.411 198.469 105.253 200.022 103.552 200.974C101.847 201.924 99.9146 202.095 98.1759 201.6C96.4373 201.107 94.8853 199.948 93.9386 198.246C93.8093 198.017 93.6999 197.793 93.6093 197.585L93.5333 197.402C89.1426 196.793 84.4333 196.349 79.6573 195.901C68.7369 194.875 57.4526 193.813 48.5104 190.636C26.9494 182.98 25.0874 159.593 33.7166 145.579C28.0969 166.384 34.3521 181.389 55.4016 185.601C64.9557 187.513 75.7893 188.917 84.988 189.483ZM98.0093 196.217L98.0186 196.232C98.3893 196.781 98.9493 197.141 99.5546 197.276C100.183 197.416 100.869 197.315 101.457 196.946L101.527 196.897C102.079 196.525 102.441 195.968 102.579 195.356C102.72 194.725 102.621 194.037 102.248 193.446L102.209 193.389C101.836 192.834 101.276 192.471 100.661 192.333C100.031 192.192 99.3426 192.292 98.7506 192.665L98.6933 192.708C98.1333 193.08 97.7706 193.644 97.636 194.251C97.4946 194.88 97.5946 195.569 97.968 196.159L98.0093 196.217Z"
      fill="url(#paint24_linear_2_4)" />
  </g>
  <mask id="mask25_2_4" style="mask-type:luminance" maskUnits="userSpaceOnUse" x="34" y="135"
    width="54" height="52">
    <path fill-rule="evenodd" clip-rule="evenodd"
      d="M79.3547 186.828C77.764 186.473 76.3053 185.514 75.352 184.037L74.116 183.893C64.0869 182.728 53.9552 181.55 46.5197 178.126C28.7427 169.938 33.4271 147.705 40.8839 135.027C37.7751 147.677 32.4776 165.329 49.7036 172.036C55.0312 174.11 61.6995 175.11 68.3593 176.109C70.6427 176.452 72.9292 176.794 75.2627 177.201C75.46 176.875 75.688 176.565 75.9453 176.275C76.3387 175.833 76.7947 175.439 77.3147 175.111C78.8147 174.16 80.56 173.908 82.1667 174.266C83.772 174.625 85.2427 175.599 86.196 177.101C87.1453 178.6 87.4 180.347 87.04 181.954C86.6813 183.559 85.7067 185.03 84.2053 185.983C82.7053 186.934 80.9613 187.187 79.3547 186.828ZM78.66 181.96L78.6693 181.977C79.04 182.525 79.6 182.886 80.2053 183.021C80.8333 183.16 81.52 183.06 82.108 182.691L82.1773 182.642C82.7307 182.27 83.0933 181.712 83.2293 181.101C83.372 180.47 83.2733 179.782 82.9 179.191L82.8587 179.133C82.4867 178.578 81.9267 178.215 81.3133 178.077C80.6813 177.936 79.9933 178.036 79.4027 178.41L79.3453 178.452C78.7853 178.825 78.4227 179.387 78.288 179.994C78.1453 180.625 78.2453 181.314 78.6187 181.904L78.66 181.96Z"
      fill="white" />
  </mask>
  <g mask="url(#mask25_2_4)">
    <path
      d="M79.3547 186.828C77.764 186.473 76.3053 185.514 75.352 184.037L74.116 183.893C64.0869 182.728 53.9552 181.55 46.5197 178.126C28.7427 169.938 33.4271 147.705 40.8839 135.027C37.7751 147.677 32.4776 165.329 49.7036 172.036C55.0312 174.11 61.6995 175.11 68.3593 176.109C70.6427 176.452 72.9292 176.794 75.2627 177.201C75.46 176.875 75.688 176.565 75.9453 176.275C76.3387 175.833 76.7947 175.439 77.3147 175.111C78.8147 174.16 80.56 173.908 82.1667 174.266C83.772 174.625 85.2427 175.599 86.196 177.101C87.1453 178.6 87.4 180.347 87.04 181.954C86.6813 183.559 85.7067 185.03 84.2053 185.983C82.7053 186.934 80.9613 187.187 79.3547 186.828ZM78.66 181.96L78.6693 181.977C79.04 182.525 79.6 182.886 80.2053 183.021C80.8333 183.16 81.52 183.06 82.108 182.691L82.1773 182.642C82.7307 182.27 83.0933 181.712 83.2293 181.101C83.372 180.47 83.2733 179.782 82.9 179.191L82.8587 179.133C82.4867 178.578 81.9267 178.215 81.3133 178.077C80.6813 177.936 79.9933 178.036 79.4027 178.41L79.3453 178.452C78.7853 178.825 78.4227 179.387 78.288 179.994C78.1453 180.625 78.2453 181.314 78.6187 181.904L78.66 181.96Z"
      fill="url(#paint25_linear_2_4)" />
  </g>
  <mask id="mask26_2_4" style="mask-type:luminance" maskUnits="userSpaceOnUse" x="44" y="89"
    width="24" height="24">
    <path fill-rule="evenodd" clip-rule="evenodd"
      d="M61.3651 105.763L59.3016 108.127L57.5099 110.223C57.2303 110.555 56.9224 110.857 56.5937 111.125C56.2547 111.399 55.8953 111.639 55.526 111.839C53.4719 112.945 51.3323 112.881 49.5235 112.088C48.4068 111.599 47.414 110.829 46.6437 109.888C45.8735 108.945 45.3251 107.823 45.0964 106.633C44.7417 104.793 45.1489 102.795 46.6697 101.035L48.6568 98.756L50.9593 96.1693L53.1604 93.7547L54.9631 91.8214C57.1969 89.4774 59.9844 89.2174 62.3364 90.1574C63.2448 90.5187 64.0907 91.064 64.8093 91.7387C65.5265 92.4107 66.124 93.2147 66.5369 94.0933C67.588 96.332 67.4781 99.06 65.2683 101.433L63.4599 103.416L61.3651 105.763Z"
      fill="white" />
  </mask>
  <g mask="url(#mask26_2_4)">
    <path
      d="M61.3651 105.763L59.3016 108.127L57.5099 110.223C57.2303 110.555 56.9224 110.857 56.5937 111.125C56.2547 111.399 55.8953 111.639 55.526 111.839C53.4719 112.945 51.3323 112.881 49.5235 112.088C48.4068 111.599 47.414 110.829 46.6437 109.888C45.8735 108.945 45.3251 107.823 45.0964 106.633C44.7417 104.793 45.1489 102.795 46.6697 101.035L48.6568 98.756L50.9593 96.1693L53.1604 93.7547L54.9631 91.8214C57.1969 89.4774 59.9844 89.2174 62.3364 90.1574C63.2448 90.5187 64.0907 91.064 64.8093 91.7387C65.5265 92.4107 66.124 93.2147 66.5369 94.0933C67.588 96.332 67.4781 99.06 65.2683 101.433L63.4599 103.416L61.3651 105.763Z"
      fill="url(#paint26_linear_2_4)" />
  </g>
  <defs>
    <linearGradient id="paint0_linear_2_4" x1="62.5425" y1="26.4507" x2="158.64" y2="89.7307"
      gradientUnits="userSpaceOnUse">
      <stop stop-color="#D40C62" />
      <stop offset="1" stop-color="#FBAB3A" />
    </linearGradient>
    <linearGradient id="paint1_linear_2_4" x1="62.5425" y1="26.4507" x2="158.64" y2="89.7307"
      gradientUnits="userSpaceOnUse">
      <stop stop-color="#D40C62" />
      <stop offset="1" stop-color="#FBAB3A" />
    </linearGradient>
    <linearGradient id="paint2_linear_2_4" x1="62.5425" y1="26.4507" x2="158.64" y2="89.7307"
      gradientUnits="userSpaceOnUse">
      <stop stop-color="#D40C62" />
      <stop offset="1" stop-color="#FBAB3A" />
    </linearGradient>
    <linearGradient id="paint3_linear_2_4" x1="62.5425" y1="26.4507" x2="158.64" y2="89.7306"
      gradientUnits="userSpaceOnUse">
      <stop stop-color="#D40C62" />
      <stop offset="1" stop-color="#FBAB3A" />
    </linearGradient>
    <linearGradient id="paint4_linear_2_4" x1="62.5425" y1="26.4507" x2="158.64" y2="89.7307"
      gradientUnits="userSpaceOnUse">
      <stop stop-color="#D40C62" />
      <stop offset="1" stop-color="#FBAB3A" />
    </linearGradient>
    <linearGradient id="paint5_linear_2_4" x1="62.5425" y1="26.4507" x2="158.64" y2="89.7307"
      gradientUnits="userSpaceOnUse">
      <stop stop-color="#D40C62" />
      <stop offset="1" stop-color="#FBAB3A" />
    </linearGradient>
    <linearGradient id="paint6_linear_2_4" x1="62.5425" y1="26.4507" x2="158.64" y2="89.7307"
      gradientUnits="userSpaceOnUse">
      <stop stop-color="#D40C62" />
      <stop offset="1" stop-color="#FBAB3A" />
    </linearGradient>
    <linearGradient id="paint7_linear_2_4" x1="62.5425" y1="26.4507" x2="158.64" y2="89.7307"
      gradientUnits="userSpaceOnUse">
      <stop stop-color="#D40C62" />
      <stop offset="1" stop-color="#FBAB3A" />
    </linearGradient>
    <linearGradient id="paint8_linear_2_4" x1="62.5425" y1="26.4507" x2="158.64" y2="89.7306"
      gradientUnits="userSpaceOnUse">
      <stop stop-color="#D40C62" />
      <stop offset="1" stop-color="#FBAB3A" />
    </linearGradient>
    <linearGradient id="paint9_linear_2_4" x1="193.9" y1="94.32" x2="113.733" y2="171.488"
      gradientUnits="userSpaceOnUse">
      <stop stop-color="#2550CC" />
      <stop offset="1" stop-color="#ED33FF" />
    </linearGradient>
    <linearGradient id="paint10_linear_2_4" x1="193.9" y1="94.32" x2="113.733" y2="171.488"
      gradientUnits="userSpaceOnUse">
      <stop stop-color="#2550CC" />
      <stop offset="1" stop-color="#ED33FF" />
    </linearGradient>
    <linearGradient id="paint11_linear_2_4" x1="193.9" y1="94.32" x2="113.733" y2="171.488"
      gradientUnits="userSpaceOnUse">
      <stop stop-color="#2550CC" />
      <stop offset="1" stop-color="#ED33FF" />
    </linearGradient>
    <linearGradient id="paint12_linear_2_4" x1="193.9" y1="94.32" x2="113.733" y2="171.488"
      gradientUnits="userSpaceOnUse">
      <stop stop-color="#2550CC" />
      <stop offset="1" stop-color="#ED33FF" />
    </linearGradient>
    <linearGradient id="paint13_linear_2_4" x1="193.9" y1="94.32" x2="113.733" y2="171.488"
      gradientUnits="userSpaceOnUse">
      <stop stop-color="#2550CC" />
      <stop offset="1" stop-color="#ED33FF" />
    </linearGradient>
    <linearGradient id="paint14_linear_2_4" x1="193.9" y1="94.32" x2="113.733" y2="171.488"
      gradientUnits="userSpaceOnUse">
      <stop stop-color="#2550CC" />
      <stop offset="1" stop-color="#ED33FF" />
    </linearGradient>
    <linearGradient id="paint15_linear_2_4" x1="193.9" y1="94.32" x2="113.733" y2="171.488"
      gradientUnits="userSpaceOnUse">
      <stop stop-color="#2550CC" />
      <stop offset="1" stop-color="#ED33FF" />
    </linearGradient>
    <linearGradient id="paint16_linear_2_4" x1="193.9" y1="94.32" x2="113.733" y2="171.488"
      gradientUnits="userSpaceOnUse">
      <stop stop-color="#2550CC" />
      <stop offset="1" stop-color="#ED33FF" />
    </linearGradient>
    <linearGradient id="paint17_linear_2_4" x1="193.9" y1="94.32" x2="113.733" y2="171.488"
      gradientUnits="userSpaceOnUse">
      <stop stop-color="#2550CC" />
      <stop offset="1" stop-color="#ED33FF" />
    </linearGradient>
    <linearGradient id="paint18_linear_2_4" x1="78.5053" y1="192.273" x2="48.0457" y2="91.4253"
      gradientUnits="userSpaceOnUse">
      <stop stop-color="#A100B9" />
      <stop offset="1" stop-color="#FF3395" />
    </linearGradient>
    <linearGradient id="paint19_linear_2_4" x1="78.5053" y1="192.273" x2="48.0458" y2="91.4253"
      gradientUnits="userSpaceOnUse">
      <stop stop-color="#A100B9" />
      <stop offset="1" stop-color="#FF3395" />
    </linearGradient>
    <linearGradient id="paint20_linear_2_4" x1="78.5054" y1="192.273" x2="48.0458" y2="91.4253"
      gradientUnits="userSpaceOnUse">
      <stop stop-color="#A100B9" />
      <stop offset="1" stop-color="#FF3395" />
    </linearGradient>
    <linearGradient id="paint21_linear_2_4" x1="78.5053" y1="192.273" x2="48.0457" y2="91.4253"
      gradientUnits="userSpaceOnUse">
      <stop stop-color="#A100B9" />
      <stop offset="1" stop-color="#FF3395" />
    </linearGradient>
    <linearGradient id="paint22_linear_2_4" x1="78.5053" y1="192.273" x2="48.0457" y2="91.4253"
      gradientUnits="userSpaceOnUse">
      <stop stop-color="#A100B9" />
      <stop offset="1" stop-color="#FF3395" />
    </linearGradient>
    <linearGradient id="paint23_linear_2_4" x1="78.5053" y1="192.273" x2="48.0457" y2="91.4253"
      gradientUnits="userSpaceOnUse">
      <stop stop-color="#A100B9" />
      <stop offset="1" stop-color="#FF3395" />
    </linearGradient>
    <linearGradient id="paint24_linear_2_4" x1="78.5053" y1="192.273" x2="48.0457" y2="91.4253"
      gradientUnits="userSpaceOnUse">
      <stop stop-color="#A100B9" />
      <stop offset="1" stop-color="#FF3395" />
    </linearGradient>
    <linearGradient id="paint25_linear_2_4" x1="78.5053" y1="192.273" x2="48.0457" y2="91.4253"
      gradientUnits="userSpaceOnUse">
      <stop stop-color="#A100B9" />
      <stop offset="1" stop-color="#FF3395" />
    </linearGradient>
    <linearGradient id="paint26_linear_2_4" x1="78.5053" y1="192.273" x2="48.0457" y2="91.4254"
      gradientUnits="userSpaceOnUse">
      <stop stop-color="#A100B9" />
      <stop offset="1" stop-color="#FF3395" />
    </linearGradient>
  </defs>
</svg>