<svg width="79" height="80" viewBox="0 0 79 80" fill="none" xmlns="http://www.w3.org/2000/svg">
<mask id="mask0_4243_1517" style="mask-type:luminance" maskUnits="userSpaceOnUse" x="0" y="0" width="79" height="80">
<path d="M18.8867 75.581C22.4402 76.8586 26.9118 77.2579 31.2239 77.6572C33.1004 77.8169 34.977 78.0165 36.7338 78.256L36.8936 78.5755C37.253 79.2542 37.8917 79.6934 38.5705 79.893C39.2492 80.0927 40.0079 80.0128 40.6867 79.6535C41.3655 79.2942 41.8045 78.6553 42.0041 77.9765C42.2037 77.2978 42.1239 76.5392 41.7646 75.8604C41.3653 75.1817 40.7665 74.7425 40.0877 74.5428C39.409 74.3432 38.6502 74.4231 37.9715 74.7825C37.7719 74.8623 37.6122 74.9821 37.4924 75.1019C37.4125 75.1817 37.2927 75.2616 37.2129 75.3813C36.0949 75.2616 34.7775 75.1817 33.3401 75.1019C29.7068 74.8623 25.3947 74.3033 21.6017 73.5447C13.257 71.8678 10.7815 65.9188 13.0174 57.6939C9.58371 63.2437 10.3424 72.5066 18.8867 75.541V75.581ZM39.1295 78.2161C38.8899 78.1762 38.6503 78.0165 38.5305 77.8168C38.3708 77.5374 38.331 77.2978 38.4109 77.0183C38.4508 76.7788 38.6104 76.5392 38.81 76.4194C39.0496 76.2597 39.3291 76.2198 39.5686 76.2597C39.8082 76.2996 40.0479 76.4594 40.1676 76.6989C40.3273 76.9385 40.3671 77.218 40.2873 77.4575C40.2474 77.6971 40.0878 77.9366 39.8881 78.0564C39.8881 78.0564 39.5288 78.2161 39.3691 78.2161C39.2892 78.2161 39.2094 78.2161 39.1695 78.2161H39.1295ZM18.0881 70.6301C21.0427 71.9876 25.0353 72.4667 29.028 72.9059H29.5071C29.9063 73.5447 30.4654 73.944 31.1042 74.0637C31.7431 74.2234 32.4217 74.0637 33.0206 73.7443C33.6195 73.3451 34.0189 72.7861 34.1387 72.1473C34.2984 71.5085 34.1785 70.8297 33.8192 70.2308C33.4599 69.6319 32.8609 69.2327 32.222 69.1129C31.5832 68.9532 30.9046 69.0729 30.3057 69.4323C30.106 69.552 29.9063 69.7118 29.7466 69.9114C29.6268 70.0312 29.5472 70.151 29.4674 70.2707C28.549 70.111 27.6305 69.9912 26.7521 69.8315C24.117 69.4323 21.4819 69.033 19.3658 68.1945C12.5384 65.5195 14.6545 58.5323 15.8523 53.5415C12.8977 58.5723 11.0211 67.396 18.0881 70.6301ZM31.4237 72.5865C31.1842 72.5466 30.9445 72.3868 30.8247 72.1872C30.665 71.9476 30.6252 71.6681 30.7051 71.4286C30.745 71.189 30.9046 70.9495 31.1442 70.8297C31.3838 70.67 31.6633 70.6301 31.9028 70.67C32.1424 70.71 32.3818 70.8696 32.5016 71.0693C32.6613 71.3088 32.7013 71.5883 32.6215 71.8678C32.5815 72.1073 32.4217 72.3469 32.222 72.4667C32.222 72.4667 31.8629 72.6264 31.7032 72.6264C31.6234 72.6264 31.5433 72.6264 31.5034 72.6264L31.4237 72.5865ZM61.2887 65.6792C59.492 65.5994 58.454 67.1565 58.4141 68.7136C58.4141 70.2707 59.3323 71.8279 61.5682 71.748C71.3502 71.3887 76.3011 67.1166 77.7384 58.9316C75.7421 64.4415 68.2359 66.0785 61.2887 65.7191V65.6792ZM15.0137 44.4782C14.3749 44.4782 13.7361 44.7178 13.2569 45.3166C10.7416 48.3511 7.74708 52.7829 6.26979 57.2946C4.19361 63.6429 5.91063 68.6338 11.9395 71.7081C5.51137 64.162 12.8976 55.8573 17.7687 49.7086C19.6452 47.3529 17.2097 44.4383 15.0137 44.4383V44.4782ZM46.1963 69.592C46.1963 69.592 46.5557 69.7117 46.7554 69.7517C49.6301 70.4304 50.8678 70.5901 53.7825 70.9495C57.4557 71.4286 58.3741 65.5195 54.5811 65.0404C52.425 64.6012 50.4287 64.3217 48.073 64.0022C47.8335 63.9623 47.6339 63.9224 47.3943 63.9224C44.5196 63.9224 43.3616 68.3143 46.1963 69.592ZM33.6196 62.2455C33.3801 62.5649 33.2203 62.9243 33.1006 63.2836C32.9808 63.6429 32.9807 64.0422 33.0206 64.4414C33.1404 65.4396 33.7393 66.3579 34.977 66.7173L35.9752 66.9967L37.2528 67.3161L38.5705 67.6356L39.7283 67.9151C40.6466 68.1147 41.4052 67.915 41.9641 67.4359C42.3235 67.1165 42.643 66.7173 42.8027 66.2781C43.0023 65.8389 43.0822 65.3597 43.0422 64.8806C42.9624 64.122 42.6031 63.3235 41.8445 62.8444C41.6848 62.7645 41.5651 62.6847 41.4053 62.6048C41.2456 62.525 41.086 62.485 40.9263 62.4451L39.8482 62.2056L38.6504 61.9261L37.4527 61.6466L36.4145 61.3671C36.135 61.2873 35.8954 61.2474 35.616 61.2474C34.7376 61.2474 34.0588 61.6466 33.5797 62.2854L33.6196 62.2455ZM2.75648 46.9137C-1.83507 55.5777 -0.597552 61.966 5.7907 67.3161C2.0376 62.8444 4.35345 55.4979 8.14647 49.7086C9.50397 47.6324 7.4277 45.2368 5.3116 45.2368C4.35336 45.2368 3.43523 45.7159 2.75648 46.9537V46.9137ZM25.8739 64.162C26.8321 64.4415 27.0316 64.4814 27.5107 64.6012L28.4692 64.8407C28.4692 64.8407 28.8283 64.9206 28.988 64.9206C31.9426 65.0404 32.6614 60.4488 29.6669 59.77C28.8285 59.4906 28.0698 59.3708 27.3112 59.2111C27.1515 59.1711 26.9518 59.1313 26.7921 59.1313C26.7122 59.1313 26.6324 59.1313 26.5925 59.1313C23.8376 59.1313 23.079 63.3634 25.8739 64.2019V64.162ZM56.4975 57.2946C52.6645 56.7356 51.5864 62.8444 54.9403 63.4034C58.8531 64.0821 64.1634 64.4414 68.7949 63.4433C75.3029 62.0458 78.7765 58.0931 78.4571 51.3056C75.1432 60.6484 64.2432 58.4126 56.4975 57.2547V57.2946ZM41.6449 56.3364C41.4453 56.6558 41.2856 57.0151 41.1658 57.3745C41.0859 57.7737 41.046 58.1331 41.1258 58.5323C41.2855 59.5305 41.9244 60.4488 43.1621 60.7283L44.2 60.9678L45.4777 61.2474L46.8353 61.5268L47.9931 61.7664C48.9114 61.9261 49.67 61.6865 50.229 61.2074C50.5883 60.888 50.8678 60.4887 51.0275 60.0496C51.1872 59.6104 51.2671 59.0913 51.2271 58.6122C51.1473 57.8137 50.748 57.095 49.9494 56.6159C49.7897 56.536 49.67 56.4562 49.5103 56.3763C49.3506 56.3364 49.1909 56.2565 49.0312 56.2565L47.9531 56.0569L46.7154 55.8173L45.4777 55.5777L44.4398 55.3382C44.2002 55.2983 43.9605 55.2584 43.7609 55.2584C42.8426 55.2584 42.1241 55.6976 41.6849 56.3763L41.6449 56.3364ZM35.2165 54.4199C34.9371 54.5796 34.7375 54.7792 34.5379 54.9789C34.3782 55.2184 34.2185 55.458 34.1387 55.7774L33.9788 56.3364C33.8191 56.9352 33.8992 57.4942 34.1787 58.0133C34.4581 58.4924 34.8974 58.8917 35.4563 59.0913C35.656 59.1312 36.1749 59.291 36.3746 59.3708C36.9735 59.5305 37.5723 59.4506 38.0914 59.1712C38.6104 58.8917 38.9698 58.4126 39.1695 57.8137L39.3691 57.1748C39.4489 56.8554 39.4889 56.5759 39.449 56.2964C39.449 56.017 39.3292 55.7374 39.1695 55.458C39.0098 55.1785 38.81 54.9789 38.5705 54.7792C38.3309 54.6195 38.0514 54.4598 37.7719 54.38C37.3726 54.3001 36.9734 54.1804 36.5342 54.1404C36.4543 54.1404 36.4145 54.1404 36.3346 54.1404C35.9353 54.1404 35.5362 54.2203 35.1768 54.4199H35.2165ZM68.8748 22.1193C68.1961 22.279 67.557 22.7581 67.1578 23.397C66.7585 24.0757 66.6788 24.8343 66.8385 25.5131C66.9982 26.1918 67.4375 26.8307 68.1162 27.2299C68.2759 27.3497 68.4756 27.4296 68.6353 27.4695C68.7551 27.5094 68.8747 27.5493 69.0345 27.5893C69.4736 28.6273 70.0725 29.8251 70.7113 31.0628C72.3483 34.3368 74.0253 38.3295 75.263 42.0027C77.978 50.0679 74.0652 55.1785 65.8004 57.3745C72.3084 57.5741 79.9744 52.3038 78.3374 43.3602C77.6587 39.6471 75.782 35.5745 73.9853 31.6218C73.1868 29.905 72.4282 28.1882 71.7494 26.5512L71.949 26.2318C72.3483 25.553 72.4282 24.7944 72.2685 24.1157C72.1088 23.4369 71.6696 22.7981 70.9908 22.3988C70.5516 22.1193 70.0326 21.9996 69.5535 21.9996C69.314 21.9996 69.0745 21.9995 68.8748 22.0794V22.1193ZM67.7568 31.8614C67.118 32.0611 66.5989 32.5002 66.2395 33.0991C65.9201 33.738 65.8803 34.4167 66.0799 35.0555C66.2796 35.6943 66.7187 36.2134 67.3176 36.5727C67.5173 36.6925 67.7568 36.7724 67.9963 36.8123C68.156 36.8123 68.3157 36.8522 68.4355 36.8522C68.7549 37.7306 69.1142 38.5691 69.4336 39.4474C70.3919 41.9229 71.3901 44.3983 71.7494 46.6741C72.8674 53.9008 65.7605 55.6177 60.8096 57.0551C66.6389 57.095 75.1831 54.3001 74.5044 46.5943C74.185 43.3602 72.5879 39.6471 71.0308 35.9739L70.8312 35.5347C71.1506 34.8958 71.1904 34.217 70.9908 33.6181C70.7912 33.0192 70.352 32.4603 69.7531 32.101C69.3938 31.9013 68.9546 31.8215 68.5554 31.8215C68.2759 31.8215 68.0363 31.8614 67.7967 31.9412L67.7568 31.8614ZM61.7678 39.168C60.1707 39.168 58.5338 40.5654 59.1327 42.4419C59.3324 43.3203 59.5719 44.039 59.8114 44.7577C59.8514 44.9174 59.9312 45.117 60.011 45.2368C61.2887 47.8719 65.521 46.3946 64.8422 43.48C64.6027 42.5218 64.5628 42.3222 64.4031 41.8431L64.1236 40.9247C64.1236 40.9247 64.0036 40.6053 63.9237 40.4456C63.4446 39.5273 62.6063 39.128 61.7678 39.128V39.168ZM12.2987 34.6163C12.2987 34.6163 12.0193 34.8559 11.8596 35.0156C9.86328 37.1716 9.10462 38.1698 7.30792 40.4855C5.07204 43.4401 9.70349 47.1932 12.0192 44.1188C13.4965 42.4419 14.7344 40.8848 16.1717 39.0482C18.0483 37.0119 16.0918 34.0973 13.8559 34.0973C13.3369 34.0973 12.7778 34.257 12.2588 34.6163H12.2987ZM21.4421 36.3731L20.7234 37.1317L19.8449 38.09L18.9267 39.128L18.1281 40.0463C17.5292 40.7251 17.3696 41.5236 17.4894 42.2823C17.5692 42.7614 17.8087 43.2005 18.0881 43.5599C18.4076 43.9192 18.7668 44.2386 19.2459 44.4383C19.9646 44.7577 20.8032 44.7577 21.6417 44.3185C21.8014 44.2386 21.9211 44.1587 22.0808 44.039C22.2006 43.9192 22.3205 43.7994 22.4402 43.6796L23.1589 42.8412L23.9972 41.9229L24.8357 41.0046L25.5544 40.2061C26.4328 39.2478 26.4727 38.1698 26.0735 37.2914C25.9137 36.9321 25.6743 36.6126 25.3948 36.3731C25.1153 36.0936 24.7559 35.894 24.3966 35.7343C24.0772 35.6145 23.7178 35.5347 23.3585 35.5347C22.7197 35.5347 22.041 35.7742 21.4421 36.413V36.3731ZM52.6647 35.1354L52.0257 35.2951C51.7063 35.375 51.4667 35.4947 51.2271 35.6544C50.9876 35.8141 50.7881 36.0537 50.6284 36.3332C50.4687 36.6127 50.3888 36.8922 50.3489 37.1717C50.3489 37.4511 50.3489 37.7705 50.4288 38.05C50.5486 38.4493 50.6683 38.8485 50.828 39.2478C51.0276 39.6471 51.307 40.0064 51.7462 40.2859C52.0257 40.4456 52.3052 40.5654 52.5847 40.5654C52.8642 40.5654 53.1835 40.5654 53.463 40.4855L54.022 40.3258C54.6209 40.1661 55.0602 39.8068 55.3796 39.3277C55.6591 38.8485 55.7789 38.2496 55.6592 37.6907C55.6192 37.491 55.4595 36.972 55.4196 36.7325C55.2599 36.1336 54.9005 35.6544 54.3815 35.335C54.0221 35.1354 53.6227 35.0156 53.2235 35.0156C53.0238 35.0156 52.8643 35.0156 52.6647 35.0955V35.1354ZM58.1743 27.749C57.6952 27.7889 57.2162 27.9885 56.8169 28.268C56.1781 28.7072 55.6991 29.4259 55.6592 30.3442C55.6592 30.5039 55.6592 30.7036 55.6592 30.8633C55.6592 31.023 55.7389 31.1827 55.7788 31.3424L56.0983 32.3804L56.4575 33.5782L56.8169 34.776L57.0965 35.8141C57.4159 37.0518 58.3341 37.6508 59.2924 37.7705C59.6517 37.8105 60.0908 37.7705 60.4501 37.6907C60.8095 37.5709 61.1689 37.4112 61.4883 37.1717C62.2868 36.5728 62.8059 35.5746 62.4864 34.3368L62.2069 33.3387L61.8477 32.101L61.4483 30.7834L61.0891 29.6255C60.8096 28.7471 60.2107 28.1882 59.5319 27.9087C59.2125 27.7889 58.8531 27.709 58.4938 27.709C58.374 27.709 58.2144 27.709 58.0946 27.709L58.1743 27.749ZM26.7521 30.5438C26.7521 30.5438 26.1932 31.0629 26.0735 31.2226C25.6343 31.6618 25.3948 32.2207 25.3948 32.8196C25.3948 33.3786 25.5943 33.9775 26.0335 34.4167L26.5126 34.8958C26.7122 35.1354 26.9917 35.2951 27.2312 35.4149C27.5107 35.5347 27.7903 35.5746 28.1097 35.5746C28.4292 35.5746 28.7085 35.5347 28.988 35.4149C29.2675 35.2951 29.5073 35.1354 29.7069 34.8958C29.9864 34.6163 30.2657 34.2969 30.5052 33.9376C30.7448 33.5782 30.9446 33.1391 30.9446 32.6599C30.9446 32.3405 30.9045 32.061 30.7848 31.7816C30.665 31.5021 30.5053 31.2625 30.3057 31.0628L29.8665 30.6636C29.4273 30.2244 28.9083 30.0248 28.3493 30.0248H28.3093C27.7504 30.0248 27.2313 30.2244 26.7921 30.6236L26.7521 30.5438ZM68.1162 35.1753C67.8767 35.0156 67.717 34.816 67.6371 34.5764C67.5573 34.3368 67.5571 34.0973 67.7168 33.8577C67.8366 33.5783 68.0762 33.4185 68.3158 33.3387C68.5554 33.2588 68.8348 33.2987 69.0345 33.3786C69.274 33.5383 69.4337 33.738 69.5135 33.9775C69.5934 34.2171 69.5934 34.4965 69.4736 34.6962C69.3538 34.9357 69.1144 35.0955 68.8748 35.1753C68.795 35.1753 68.6751 35.2152 68.5554 35.2152C68.3956 35.2152 68.2759 35.2152 68.1162 35.0955V35.1753ZM20.4439 26.3116L19.7253 27.0702L18.8068 27.9885L17.8486 28.9867L17.01 29.8651C16.3712 30.5438 16.2116 31.3423 16.3314 32.061C16.4112 32.5401 16.6109 32.9793 16.8904 33.3786C17.1699 33.7779 17.569 34.0973 18.0082 34.2969C18.7269 34.6563 19.5655 34.6962 20.4039 34.2969C20.5637 34.2171 20.6834 34.1372 20.8431 34.0174C20.9629 33.9376 21.1227 33.8178 21.2025 33.6581L21.9611 32.8596L22.7994 31.9412L23.678 31.0229L24.4366 30.2643C25.3549 29.346 25.4346 28.268 25.0353 27.3896C24.8756 27.0303 24.6362 26.7109 24.3966 26.4314C24.1171 26.1519 23.7977 25.9124 23.4384 25.7527C23.0791 25.593 22.7197 25.5131 22.3603 25.5131C21.7215 25.5131 21.0826 25.7527 20.5236 26.3116H20.4439ZM48.7517 23.7962C48.2726 23.8761 47.7936 24.0757 47.4343 24.3552C46.7955 24.8343 46.3562 25.553 46.3162 26.4713C46.3162 26.631 46.3162 26.7907 46.3162 26.9904C46.3162 27.1501 46.3962 27.3098 46.4361 27.4695L46.7953 28.5075L47.1945 29.6655L47.5939 30.8633L47.9134 31.8614C48.2727 33.0991 49.1908 33.6581 50.189 33.738C50.5883 33.738 50.9478 33.7379 51.347 33.6181C51.7064 33.4984 52.0657 33.3387 52.3852 33.0991C53.1837 32.4603 53.6228 31.4621 53.2634 30.2244L52.9439 29.2263L52.5448 27.9885L52.1056 26.671L51.7062 25.553C51.4267 24.6746 50.7881 24.1556 50.1093 23.916C49.7899 23.7962 49.5102 23.7563 49.1908 23.7563C49.0311 23.7563 48.8714 23.7563 48.7117 23.7563L48.7517 23.7962ZM20.6435 8.4245C17.7688 10.86 15.1736 14.5333 12.6582 18.0867C11.5402 19.6439 10.4622 21.1611 9.38418 22.5585H9.02474C8.26613 22.5585 7.54745 22.838 7.02841 23.3171C6.50936 23.7963 6.19011 24.5149 6.19011 25.2735C6.19011 26.0321 6.46964 26.7508 6.98869 27.2698C7.50773 27.7889 8.18644 28.1083 8.94505 28.1083C9.70365 28.1083 10.4223 27.8288 10.9414 27.3098C11.4604 26.7908 11.7797 26.112 11.7797 25.3534C11.7797 25.1537 11.7799 24.9541 11.74 24.7545C11.74 24.6347 11.66 24.475 11.6201 24.3552C12.2988 23.4369 13.0174 22.3189 13.816 21.1611C15.8522 18.1267 18.4474 14.693 21.0027 11.7784C26.6323 5.39013 33.0207 6.22857 39.0496 12.2575C37.0133 8.50438 32.7412 5.50988 28.1097 5.50988C25.6343 5.50988 23.0391 6.34832 20.6435 8.4245ZM51.2671 18.2066C51.9858 20.3227 52.7045 22.1593 53.5829 24.3552C54.621 27.6292 59.6917 26.5113 59.3723 23.1974C59.3723 22.9977 59.3323 22.798 59.2524 22.6383C58.374 19.8036 57.8949 18.6856 56.777 15.9706C56.2579 14.7728 55.2597 14.2538 54.1817 14.2538C52.2652 14.2538 50.2689 15.9706 51.2271 18.2465L51.2671 18.2066ZM8.30609 26.0321C8.30609 26.0321 7.98685 25.6329 7.98685 25.3534C7.98685 25.034 8.06649 24.7944 8.26612 24.5948C8.42583 24.3951 8.66556 24.2753 8.94505 24.2753C9.22453 24.2753 9.46406 24.3552 9.6637 24.5549C9.8234 24.7146 9.98318 24.9541 9.98318 25.2336C9.98318 25.553 9.9033 25.7926 9.70366 25.9922C9.54396 26.1919 9.30422 26.3116 9.02474 26.3116H8.94505C8.66556 26.3116 8.46575 26.1918 8.26612 26.0321H8.30609ZM27.1915 19.6838C26.4728 20.3626 26.3129 20.5223 25.9935 20.8816L25.3148 21.6003C25.3148 21.6003 25.0752 21.8399 24.9954 21.9996C23.3983 24.5149 27.0317 27.3896 29.1079 25.1537C29.7467 24.5548 30.2657 23.9559 30.7848 23.397C30.9045 23.2772 31.0244 23.1175 31.1442 22.9977C32.4219 21.1611 30.705 19.0051 28.8684 19.0051C28.3094 19.0051 27.7106 19.2047 27.1915 19.6838ZM69.1941 25.7127C68.9545 25.553 68.7948 25.3534 68.715 25.1138C68.6351 24.8743 68.6751 24.5948 68.7549 24.3552C68.8747 24.0757 69.1144 23.916 69.3539 23.8361C69.5935 23.7563 69.8729 23.7963 70.0726 23.8761C70.3121 24.0358 70.4718 24.2354 70.5517 24.475C70.6315 24.7145 70.6315 24.9541 70.5117 25.1937C70.3919 25.4333 70.1523 25.5929 69.9127 25.6728C69.8329 25.6728 69.7133 25.7127 69.6335 25.7127C69.4737 25.7127 69.3139 25.7127 69.1941 25.5929V25.7127ZM30.0261 8.66405C28.469 8.66405 26.9119 9.14323 25.3548 10.2212C22.7197 12.0978 20.2842 15.3318 17.8886 18.5659L17.609 18.9651C16.9303 18.9651 16.2915 19.3245 15.8523 19.8036C15.4131 20.2827 15.1337 20.9215 15.1736 21.6402C15.1736 22.3589 15.5328 22.9578 16.0119 23.397C16.491 23.8361 17.1299 24.1156 17.8486 24.0757C18.5673 24.0757 19.1662 23.7164 19.6054 23.2373C20.0446 22.7582 20.324 22.1193 20.2841 21.4006C20.2841 21.1611 20.2443 20.9215 20.1644 20.682C20.1245 20.5223 20.0447 20.4025 19.9648 20.2827C20.5637 19.564 21.1227 18.8454 21.7216 18.1267C23.3985 16.0505 25.0354 13.9344 26.8321 12.5369C32.5416 7.94538 37.5723 13.2556 41.2855 16.849C39.1294 13.0161 34.7774 8.66405 30.0661 8.66405H30.0261ZM17.05 22.2391C17.05 22.2391 16.7308 21.8399 16.7308 21.5604C16.7308 21.241 16.8104 21.0014 17.01 20.8018C17.1698 20.642 17.4095 20.5223 17.689 20.4823C17.9685 20.4823 18.208 20.5622 18.4076 20.7619C18.6073 20.9216 18.7271 21.1611 18.7271 21.4406C18.7271 21.76 18.6472 21.9996 18.4476 22.1992C18.2879 22.3988 18.0481 22.5186 17.7687 22.5186H17.689C17.4095 22.5186 17.2097 22.4387 17.01 22.2391H17.05ZM27.5107 4.35204C37.2528 2.55535 40.7665 13.0959 43.6412 20.4025C45.0786 23.9959 50.9077 21.8798 49.7099 18.6857C48.3125 14.9725 45.9968 10.1813 42.8426 6.66773C40.1676 3.71316 37.253 2.15607 34.1387 2.15607C32.0226 2.15607 29.7866 2.87476 27.5107 4.35204ZM40.5268 0C38.6104 0 36.5742 0.399278 34.4182 1.19781C40.1676 0.199645 45.358 5.86922 48.5121 12.0578C50.1491 15.252 55.9785 12.5769 53.6229 8.78389C49.8698 2.79491 45.5975 0 40.5668 0H40.5268Z" fill="white"/>
</mask>
<g mask="url(#mask0_4243_1517)">
<rect width="91.9908" height="88.1578" transform="matrix(1 0 0 -1 -5.74902 84.4453)" fill="white"/>
</g>
</svg>
