<svg width="736" height="200" viewBox="0 0 736 200" fill="none" xmlns="http://www.w3.org/2000/svg">
<path d="M48.1599 188.953C57.2382 192.165 68.6229 193.147 79.6203 194.145C84.4057 194.557 89.191 195.044 93.6734 195.642L94.0942 196.437C94.5464 197.239 95.1577 197.944 95.892 198.51C96.6264 199.077 97.469 199.494 98.3703 199.736C100.181 200.235 102.119 200.021 103.77 199.138C104.588 198.695 105.308 198.095 105.886 197.375C106.464 196.655 106.89 195.828 107.137 194.945C107.646 193.171 107.427 191.272 106.527 189.654C105.589 188.055 104.057 186.874 102.251 186.355C100.442 185.856 98.505 186.071 96.8552 186.953C96.3967 187.135 95.9802 187.406 95.6304 187.749C95.3687 187.957 95.1302 188.192 94.9191 188.45C92.0698 188.149 88.707 187.951 85.0412 187.749C74.9905 187.065 64.9934 185.765 55.1086 183.856C33.8291 179.666 27.516 164.792 33.2231 144.231C24.4647 158.107 26.4007 181.262 48.1894 188.85L48.1599 188.953ZM99.7802 195.551C99.4697 195.497 99.1738 195.38 98.911 195.209C98.6482 195.038 98.424 194.816 98.2525 194.557C98.0573 194.265 97.9291 193.935 97.8768 193.59C97.8245 193.244 97.8493 192.892 97.9494 192.557C98.0056 192.252 98.1249 191.962 98.3001 191.705C98.4753 191.447 98.7026 191.228 98.968 191.06C99.5344 190.686 100.226 190.538 100.9 190.648C101.224 190.703 101.53 190.83 101.795 191.021C102.06 191.211 102.277 191.459 102.428 191.745C102.623 192.017 102.752 192.33 102.805 192.658C102.858 192.987 102.834 193.323 102.735 193.642C102.679 193.946 102.559 194.236 102.384 194.494C102.209 194.751 101.982 194.971 101.716 195.138C101.295 195.334 100.849 195.473 100.391 195.551H99.7802ZM46.1229 176.582C53.6566 179.971 63.8375 181.171 74.0227 182.268H75.2432C75.6768 183.003 76.2638 183.64 76.9659 184.138C77.6679 184.635 78.4692 184.982 79.3173 185.155C80.9461 185.567 82.6843 185.155 84.2037 184.359C84.9289 183.916 85.5552 183.333 86.0449 182.646C86.5345 181.96 86.8774 181.183 87.053 180.363C87.2467 179.551 87.2747 178.71 87.1353 177.888C86.9959 177.065 86.6919 176.278 86.2407 175.571C85.7996 174.852 85.2089 174.232 84.507 173.751C83.805 173.27 83.0076 172.939 82.1666 172.78C81.3389 172.59 80.4809 172.562 79.6422 172.699C78.8036 172.835 78.0008 173.133 77.2803 173.576C76.4302 174.126 75.7028 174.84 75.1422 175.674C72.798 175.262 70.4579 174.973 68.2188 174.573C61.4848 173.575 54.7761 172.578 49.3805 170.483C31.9857 163.798 37.3687 146.33 40.4032 133.856C32.8864 146.429 28.101 168.491 46.1229 176.578V176.582ZM80.1296 181.472C79.8191 181.417 79.5235 181.299 79.2608 181.128C78.9981 180.956 78.7739 180.734 78.6018 180.474C78.4015 180.201 78.2684 179.885 78.2129 179.552C78.1575 179.22 78.1811 178.879 78.282 178.557C78.3381 178.239 78.4683 177.938 78.6625 177.678C78.8566 177.418 79.1096 177.205 79.4015 177.056C79.9711 176.685 80.6622 176.538 81.3375 176.644C81.6479 176.698 81.9435 176.815 82.2056 176.987C82.4678 177.158 82.691 177.381 82.8611 177.641C83.0604 177.931 83.1913 178.26 83.2445 178.605C83.2976 178.951 83.2716 179.303 83.1683 179.637C83.1122 179.942 82.9928 180.232 82.8176 180.489C82.6424 180.747 82.4151 180.966 82.1498 181.134C81.7303 181.33 81.2858 181.468 80.8282 181.547H80.319L80.1296 181.472ZM38.2988 111.196C37.4379 111.182 36.5853 111.364 35.8082 111.727C35.0312 112.091 34.3508 112.626 33.8207 113.291C27.3897 120.878 19.7509 131.959 15.9925 143.237C10.6978 159.105 15.0792 171.584 30.4537 179.27C14.0606 160.404 32.8948 139.645 45.319 124.272C50.1044 118.384 43.8923 111.097 38.2904 111.097L38.2988 111.196ZM7.02781 117.283C-4.68093 138.944 -1.52857 154.916 14.7635 168.289C5.1928 157.114 11.0977 138.747 20.7694 124.272C24.2332 119.08 18.9386 113.093 13.543 113.093C11.0977 113.093 8.75761 114.289 7.02781 117.386V117.283ZM31.3586 86.5402C31.3586 86.5402 30.6473 87.1381 30.2391 87.5381C25.1507 92.9278 23.2147 95.4227 18.6313 101.212C12.9327 108.602 24.7424 117.984 30.6473 110.285C34.4352 106.091 37.5707 102.198 41.2365 97.6082C46.0219 92.5154 41.0345 85.2371 35.3443 85.2371C33.8827 85.2522 32.4609 85.7055 31.2702 86.536L31.3586 86.5402ZM54.6751 90.9319L52.8443 92.8288L50.6052 95.2247L48.2609 97.8186L46.2239 100.115C45.5415 100.868 45.0419 101.762 44.7627 102.73C44.4835 103.699 44.432 104.716 44.6119 105.707C44.8484 106.877 45.3728 107.973 46.1397 108.899C46.936 109.844 47.9442 110.596 49.0859 111.097C50.0581 111.513 51.1157 111.703 52.1754 111.65C53.2352 111.598 54.268 111.306 55.1927 110.796C55.5884 110.6 55.9634 110.367 56.3123 110.099L57.2298 109.2L59.0648 107.105L61.1986 104.808L63.3409 102.511L65.1717 100.515C67.4108 98.1196 67.5118 95.4227 66.4932 93.2288C66.0981 92.3467 65.5072 91.562 64.7634 90.9319C64.0204 90.2531 63.1576 89.7124 62.2172 89.336C61.3723 89.016 60.4756 88.847 59.5698 88.8371C58.6435 88.8446 57.7293 89.0439 56.8872 89.422C56.0451 89.8001 55.2941 90.3484 54.6835 91.0309L54.6751 90.9319ZM68.2188 76.3587C68.2188 76.3587 66.7921 77.6577 66.4848 78.0577C65.9399 78.5768 65.5062 79.1972 65.2092 79.8827C64.9122 80.5681 64.7578 81.3048 64.755 82.0494C64.7408 83.5382 65.326 84.9724 66.3838 86.0412L67.6086 87.2412C68.1233 87.7913 68.7479 88.232 69.4436 88.536C70.8866 89.0695 72.4786 89.0695 73.9217 88.536C74.6322 88.2579 75.2623 87.8133 75.7567 87.2412C76.5136 86.5094 77.1959 85.7069 77.7937 84.8453C78.4791 83.9108 78.8684 82.7993 78.9133 81.6494C78.9326 80.8972 78.7892 80.1495 78.4924 79.4556C78.2084 78.7844 77.7939 78.1737 77.2719 77.6577L76.1776 76.6597C75.6766 76.1498 75.075 75.745 74.4093 75.4699C73.7437 75.1948 73.0279 75.0553 72.3055 75.0597H72.2045C70.7673 75.0597 69.3841 75.5965 68.3367 76.5607L68.2188 76.3587ZM52.133 65.7772L50.298 67.6741L47.979 69.971L45.5337 72.4453L43.3956 74.6432C42.6802 75.3601 42.15 76.2341 41.8491 77.1924C41.5482 78.1507 41.4854 79.1656 41.6658 80.1525C41.8812 81.3429 42.3674 82.4704 43.0884 83.4515C43.818 84.4486 44.802 85.2406 45.9419 85.7484C47.0889 86.3204 48.3791 86.5583 49.6598 86.4341C50.9405 86.3098 52.1581 85.8286 53.1683 85.0474C53.5472 84.829 53.863 84.5196 54.0858 84.1484L56.0219 82.1525L58.1599 79.8556L60.399 77.5628L62.335 75.6659C64.6751 73.369 64.8602 70.6762 63.8586 68.4782C63.4391 67.6053 62.8902 66.798 62.2298 66.0824C61.53 65.3744 60.7023 64.7997 59.7887 64.3875C58.9261 63.9993 57.9896 63.7941 57.0404 63.7854C56.1626 63.7918 55.2952 63.9718 54.4903 64.3148C53.6853 64.6578 52.9594 65.1566 52.3561 65.7813L52.133 65.7772ZM69.3384 49.2081C68.267 50.1543 67.2471 51.155 66.2828 52.206L64.553 54.0205C64.2423 54.321 63.9683 54.6559 63.7365 55.0184C59.6666 61.3071 68.9301 68.4947 74.2247 62.903C75.8535 61.4061 77.1708 59.9091 78.5008 58.5112C78.808 58.2143 79.1111 57.8143 79.4183 57.5133C82.6759 52.9236 78.2988 47.5338 73.6144 47.5338C72.0237 47.5392 70.4948 48.1378 69.3384 49.2081Z" fill="#6D2EB1"/>
<path fill-rule="evenodd" clip-rule="evenodd" d="M87.7724 2.99382C93.2662 0.997941 98.457 0 103.345 0H103.446C116.274 0 127.171 6.98559 136.758 21.9588C142.751 31.4434 127.886 38.128 123.711 30.1444C115.668 14.6722 102.431 0.519589 87.7724 2.99382ZM70.1506 10.878C93.6743 6.62379 102.966 30.0439 110.113 48.0571C110.51 49.0587 110.901 50.0435 111.287 51.006C114.953 59.9916 129.805 54.7173 126.762 46.7132C123.198 37.4307 117.293 25.4512 109.25 16.6677C102.427 9.28211 94.9948 5.38932 87.0529 5.38932C81.6489 5.38932 75.9544 7.18726 70.1506 10.878ZM71.6785 13.7739C65.3654 13.7739 58.7492 15.8729 52.6381 21.0605C45.3107 27.1513 38.6903 36.3183 32.2762 45.2173C31.9545 45.6568 31.6341 46.0951 31.3148 46.5317L31.3144 46.5323L31.3118 46.5358L31.3118 46.5358L31.3118 46.5359L31.3118 46.5359C28.8043 49.9656 26.3668 53.2995 23.926 56.3967H23.0127C21.1331 56.3844 19.3167 57.061 17.9201 58.2936C17.2414 58.9223 16.7015 59.6807 16.3338 60.5219C15.966 61.3631 15.7783 62.2693 15.7821 63.1844C15.77 64.1065 15.9437 65.0219 16.2932 65.8781C16.6428 66.7343 17.1613 67.5145 17.8191 68.1741C18.4661 68.8315 19.2404 69.3558 20.0968 69.7163C20.9532 70.0767 21.8744 70.266 22.8065 70.2731C23.7476 70.2849 24.6819 70.1147 25.5557 69.7722C26.4296 69.4298 27.2259 68.9217 27.8991 68.2772C28.5688 67.6409 29.1027 66.8804 29.4698 66.0401C29.8368 65.1998 30.0297 64.2963 30.0371 63.3823C30.0537 62.8813 30.0198 62.3799 29.9361 61.8854C29.8799 61.5408 29.7766 61.2051 29.6289 60.8875C30.7396 59.4152 31.8937 57.7355 33.1169 55.9554C33.7986 54.9633 34.5017 53.9399 35.2307 52.9039C40.841 44.7236 46.9609 36.8902 53.5556 29.4482C67.9117 13.477 84.2037 15.5719 99.5783 30.6441C94.3847 21.2626 83.4925 13.7739 71.6785 13.7739ZM24.7425 64.9823C24.5352 65.2355 24.2716 65.4388 23.9718 65.5767C23.6719 65.7147 23.3439 65.7836 23.0127 65.7782H22.8065C22.1626 65.7595 21.5478 65.5118 21.0767 65.0813H21.1777C21.1777 65.0813 20.3654 64.0834 20.3654 63.3823C20.3417 63.0356 20.3927 62.6878 20.5153 62.3617C20.6378 62.0356 20.8291 61.7384 21.0767 61.4895C21.2838 61.2359 21.5473 61.032 21.8471 60.8933C22.1469 60.7547 22.475 60.685 22.8065 60.6895C23.1449 60.6753 23.4826 60.7299 23.7984 60.8498C24.1142 60.9698 24.4013 61.1525 24.6415 61.3864C24.8905 61.6152 25.0908 61.8901 25.2308 62.1951C25.3708 62.5002 25.4477 62.8294 25.4571 63.1637C25.4665 63.4981 25.4082 63.831 25.2855 64.1431C25.1629 64.4552 24.9783 64.7405 24.7425 64.9823ZM136.624 60.8867C134.397 55.4145 132.566 50.8083 130.731 45.5175L130.614 45.6248C128.173 39.934 133.261 35.6412 138.147 35.6412C139.567 35.6033 140.965 35.9951 142.149 36.7633C143.334 37.5314 144.248 38.6386 144.768 39.934L145.195 40.9489C147.746 47.0059 148.957 49.8821 151.081 56.6021C151.288 57.0399 151.391 57.5177 151.384 58.0001C152.196 66.2805 139.271 69.0723 136.624 60.8867ZM124.317 59.4891C123.097 59.684 121.942 60.1634 120.95 60.8871C120.097 61.4997 119.398 62.2943 118.904 63.2109C118.41 64.1275 118.136 65.142 118.101 66.1778V67.4768C118.154 67.8857 118.255 68.2871 118.404 68.6727L119.322 71.2706L120.34 74.1572L121.359 77.151L122.171 79.6253C123.089 82.7181 125.429 84.116 127.975 84.3181C128.967 84.3664 129.961 84.2649 130.921 84.017C131.869 83.7271 132.763 83.2884 133.568 82.7181C135.605 81.1222 136.725 78.6273 135.807 75.5345L134.991 73.0356L133.977 69.9428L132.853 66.6438L131.839 63.8479C131.538 62.8992 131.011 62.0339 130.303 61.3228C129.595 60.6118 128.725 60.0752 127.764 59.7572C127.017 59.4752 126.221 59.3353 125.42 59.3448H124.2L124.317 59.4891ZM144.886 70.6725C145.905 69.9506 147.099 69.5028 148.35 69.3735L148.148 69.3076H149.141C150.047 69.3175 150.943 69.4865 151.788 69.8065C152.735 70.1862 153.583 70.7684 154.27 71.5104C154.957 72.2524 155.467 73.1355 155.761 74.0952L156.674 76.9818L157.693 80.2808L158.61 83.3777L159.322 85.8519C159.697 87.1439 159.656 88.5178 159.204 89.7859C158.752 91.054 157.911 92.1543 156.796 92.9365C155.99 93.5069 155.095 93.9456 154.145 94.2355C153.179 94.4506 152.185 94.5174 151.199 94.4334C149.861 94.2936 148.601 93.7448 147.599 92.8649C146.597 91.9849 145.902 90.8183 145.614 89.5303L144.903 86.9365L143.985 83.9426L143.072 80.9488L142.255 78.3509C142.103 77.967 141.997 77.5671 141.94 77.1591V75.8602C141.98 74.8294 142.268 73.8225 142.78 72.9212C143.291 72.0198 144.013 71.2494 144.886 70.6725ZM134.296 87.8348L132.667 88.2472C131.939 88.4236 131.249 88.7267 130.63 89.142C129.995 89.5869 129.473 90.168 129.102 90.841C128.731 91.4884 128.489 92.1995 128.391 92.9358C128.357 93.6743 128.427 94.4138 128.597 95.1338C128.9 96.1317 129.208 97.1297 129.612 98.1276C130.13 99.19 130.942 100.089 131.956 100.721C132.595 101.132 133.331 101.373 134.094 101.422C134.846 101.456 135.6 101.388 136.333 101.22L137.76 100.808C139.193 100.432 140.428 99.5391 141.219 98.3091C141.96 97.0768 142.214 95.6218 141.935 94.2183C141.89 94.0066 141.792 93.6506 141.685 93.2654L141.685 93.2648L141.685 93.2643L141.685 93.264L141.685 93.2639L141.685 93.2638L141.685 93.2635L141.684 93.2632L141.684 93.2627C141.54 92.741 141.381 92.166 141.32 91.8224C140.94 90.3627 139.989 89.1081 138.673 88.3296C137.776 87.8229 136.762 87.5476 135.727 87.5296C135.242 87.4972 134.756 87.5661 134.3 87.7317L134.296 87.8348ZM157.512 97.9212C153.438 97.9212 149.262 101.414 150.778 106.103C151.252 108.055 151.829 109.982 152.507 111.876C152.617 112.298 152.789 112.702 153.017 113.076C156.278 119.674 167.07 115.963 165.34 108.684C165.223 108.227 165.124 107.839 165.038 107.502L165.035 107.489L165.033 107.48L165.032 107.475C164.674 106.068 164.545 105.561 164.22 104.589L163.505 102.296C163.505 102.296 163.202 101.496 162.996 101.096C162.491 100.094 161.707 99.2517 160.734 98.6678C159.762 98.0839 158.64 97.7822 157.499 97.7975L157.512 97.9212ZM76.5651 21.6629H76.6703C88.6821 21.6629 99.7805 32.5413 105.315 42.1414C104.942 41.7874 104.564 41.4268 104.18 41.0612C94.8316 32.1483 82.4394 20.3337 68.4548 31.3619C64.2685 34.5434 60.4315 39.2165 56.5492 43.9447L56.5482 43.9458L56.5473 43.947C56.168 44.4089 55.7882 44.8714 55.4077 45.3331C54.6228 46.2517 53.8687 47.1703 53.1151 48.0883C52.3936 48.9671 51.6726 49.8455 50.9254 50.7228C51.1501 51.0249 51.317 51.3644 51.4178 51.7249C51.6198 52.3023 51.7236 52.9083 51.725 53.5187C51.7667 54.3594 51.6346 55.1996 51.3366 55.9891C51.0387 56.7785 50.581 57.5007 49.991 58.1125C49.4363 58.7499 48.7509 59.2659 47.9794 59.6268C47.2079 59.9877 46.3675 60.1855 45.5129 60.2074C44.6536 60.2468 43.7951 60.1151 42.9893 59.8202C42.1834 59.5254 41.447 59.0735 40.8244 58.4919C40.171 57.9491 39.6418 57.2774 39.2712 56.5207C38.9006 55.764 38.697 54.9392 38.6737 54.1002C38.6322 53.2605 38.7641 52.4212 39.0613 51.6326C39.3585 50.844 39.815 50.1222 40.4035 49.5104C40.9682 48.88 41.6587 48.3696 42.4326 48.0107C43.2064 47.6518 44.047 47.4521 44.9026 47.4238L45.6139 46.4177C51.725 38.3393 57.9203 30.2444 64.6543 25.5557C68.6274 22.8588 72.5962 21.6629 76.5651 21.6629ZM46.2703 56.0943C46.5701 55.9557 46.8336 55.7517 47.0407 55.4981C47.2888 55.2488 47.4804 54.9509 47.603 54.624C47.7256 54.2972 47.7763 53.9486 47.752 53.6012C47.7574 53.2767 47.6871 52.9553 47.5463 52.6615C47.4055 52.3677 47.198 52.1094 46.9397 51.9063C46.6997 51.6718 46.4128 51.4885 46.097 51.3678C45.7812 51.2472 45.4433 51.1919 45.1047 51.2053C44.4562 51.2859 43.8506 51.566 43.3749 52.0053C43.1267 52.2546 42.9351 52.5525 42.8126 52.8794C42.69 53.2062 42.6392 53.5548 42.6636 53.9022C42.6636 54.5991 43.4759 55.5971 43.4759 55.5971H43.3749C43.5943 55.8295 43.8626 56.0126 44.1612 56.1336C44.4599 56.2546 44.7817 56.3107 45.1047 56.2981H45.3109C45.6424 56.3027 45.9705 56.233 46.2703 56.0943Z" fill="#6D2EB1"/>
<path fill-rule="evenodd" clip-rule="evenodd" d="M189.008 79.7877C193.482 89.4384 198.076 99.3474 199.763 108.401C203.938 130.76 184.389 143.919 167.785 143.436C188.862 137.948 198.841 125.172 191.918 105.007C188.675 95.6511 184.804 86.5151 180.331 77.6588C178.703 74.566 177.175 71.5681 176.055 68.9743C175.647 68.8753 175.34 68.7763 175.037 68.6732C174.56 68.5593 174.109 68.3563 173.711 68.0753C172.9 67.6121 172.194 66.993 171.634 66.2553C171.074 65.5175 170.673 64.6764 170.453 63.7825C169.998 61.9848 170.287 60.0836 171.258 58.4942C172.229 56.9048 173.802 55.7565 175.634 55.3V55.201C176.193 55.0287 176.78 54.9601 177.364 54.999C178.954 55.0018 180.498 55.5234 181.751 56.4815C183.005 57.4395 183.898 58.7795 184.288 60.2897C184.725 62.0898 184.434 63.9861 183.475 65.5804L182.966 66.3804C184.696 70.4712 186.632 74.764 188.669 79.0568C188.782 79.3002 188.895 79.5439 189.008 79.7877ZM178.282 64.1825C178.93 63.9934 179.478 63.5645 179.809 62.9866C179.95 62.7093 180.031 62.4069 180.049 62.0978C180.066 61.7887 180.019 61.4794 179.91 61.1887C179.689 60.5681 179.259 60.04 178.69 59.6918C178.107 59.4554 177.46 59.4205 176.855 59.5928C176.521 59.689 176.211 59.8544 175.948 60.0778C175.684 60.3012 175.472 60.5773 175.327 60.8876C175.093 61.4942 175.058 62.1573 175.226 62.7845C175.447 63.4051 175.878 63.9332 176.447 64.2815V63.9846C176.604 64.106 176.784 64.195 176.977 64.246C177.171 64.297 177.372 64.3091 177.57 64.2815C177.671 64.2815 177.799 64.2567 177.926 64.232C178.053 64.2072 178.181 64.1825 178.282 64.1825ZM189.99 116.488C189.189 108.558 185.26 99.4775 181.361 90.4684L181.131 89.9352L180.621 88.8383C181.012 88.1069 181.251 87.3065 181.323 86.4839C181.395 85.6612 181.3 84.8327 181.042 84.0466C180.479 82.4573 179.361 81.1139 177.886 80.2527C176.942 79.7764 175.892 79.5369 174.83 79.5558C174.174 79.5499 173.521 79.6502 172.898 79.8527L172.797 79.6548C171.16 80.1794 169.78 81.2818 168.925 82.7476C168.134 84.2602 167.983 86.0173 168.504 87.6383C169.039 89.2434 170.164 90.5959 171.661 91.4322C172.194 91.7352 172.781 91.9379 173.391 92.0301C173.618 92.0301 173.836 92.0601 174.037 92.0877C174.209 92.1113 174.369 92.1332 174.51 92.1332C174.92 93.2398 175.356 94.3213 175.793 95.4034C176.222 96.4666 176.652 97.5306 177.056 98.6198C177.222 99.0391 177.388 99.4584 177.554 99.8775L177.554 99.8775C179.835 105.642 182.105 111.377 182.949 116.686C185.68 134.002 169.144 138.664 156.649 142.188L156.645 142.189C156.105 142.341 155.572 142.492 155.049 142.641C169.931 142.74 191.72 135.75 189.99 116.488ZM177.162 86.7435C176.83 87.3214 176.282 87.7502 175.634 87.9394C175.543 87.9394 175.432 87.9592 175.309 87.9811C175.157 88.0082 174.987 88.0383 174.817 88.0383C174.419 88.0809 174.02 87.9749 173.698 87.7414V87.9394C173.129 87.5911 172.698 87.063 172.477 86.4425C172.361 86.1489 172.319 85.8323 172.354 85.5193C172.389 85.2063 172.501 84.9062 172.679 84.6445C172.825 84.3342 173.036 84.0581 173.3 83.8347C173.563 83.6113 173.873 83.4459 174.207 83.3497C174.813 83.1774 175.46 83.2123 176.042 83.4486C176.611 83.7969 177.042 84.325 177.263 84.9455C177.373 85.236 177.421 85.5455 177.403 85.8548C177.386 86.1642 177.304 86.4667 177.162 86.7435ZM140.099 158.496C131.547 157.11 134.295 141.84 144.072 143.238L144.093 143.127C145.153 143.282 146.236 143.445 147.338 143.612C166.754 146.538 192.072 150.355 200.07 128.253C200.886 145.222 192.027 155.102 175.432 158.595C163.618 161.094 150.078 160.195 140.099 158.496ZM156.29 164.2C151.707 164.002 149.06 167.911 148.959 171.787C148.959 175.68 151.299 179.573 157.002 179.371C181.947 178.472 194.573 167.791 198.247 147.329C193.155 161.107 174.013 165.197 156.299 164.299L156.29 164.2ZM117.801 173.981C117.801 173.981 118.719 174.282 119.228 174.393C126.556 176.088 129.712 176.488 137.149 177.387C146.514 178.587 148.858 163.812 139.182 162.616C133.685 161.515 128.593 160.818 122.587 160.018C122.017 159.904 121.438 159.837 120.857 159.82C113.525 159.808 110.571 170.789 117.801 173.981ZM84.4053 158.211C84.7029 157.282 85.1505 156.405 85.731 155.613L85.63 155.7C86.2151 154.887 86.9932 154.226 87.8973 153.773C88.8013 153.321 89.8042 153.09 90.8194 153.102C91.5099 153.103 92.1964 153.204 92.8564 153.403L95.5037 154.108L98.5593 154.809L101.615 155.506L104.363 156.104C104.784 156.198 105.193 156.337 105.584 156.517C105.793 156.612 105.972 156.715 106.153 156.819L106.153 156.819C106.325 156.918 106.498 157.018 106.703 157.114C107.574 157.68 108.301 158.432 108.831 159.313C109.36 160.195 109.677 161.183 109.759 162.203C109.864 163.399 109.654 164.602 109.149 165.696C108.683 166.812 107.949 167.803 107.01 168.583C105.584 169.778 103.648 170.282 101.308 169.778L98.3615 169.082L94.9945 168.282L91.7369 167.486L89.1906 166.785C87.8616 166.458 86.6686 165.735 85.7756 164.717C84.8825 163.699 84.3333 162.435 84.2032 161.098C84.0663 160.132 84.1351 159.15 84.4053 158.211ZM65.9793 160.414C68.0381 161.005 68.7198 161.168 69.6175 161.383C69.7842 161.423 69.9584 161.464 70.1502 161.511L72.5955 162.113C73.0306 162.21 73.4722 162.276 73.917 162.311C81.4549 162.612 83.2857 151.131 75.651 149.436C73.6792 148.85 71.6719 148.385 69.641 148.043C69.2096 147.927 68.7663 147.859 68.3194 147.841H67.8101C60.7857 147.841 58.8497 158.422 65.9793 160.517V160.414ZM106.194 140.842C105.686 141.658 105.277 142.528 104.974 143.436C104.738 144.381 104.703 145.364 104.873 146.323C105.293 148.797 106.91 151.114 110.066 151.815L112.709 152.413L115.971 153.11L119.431 153.811L122.377 154.409C123.373 154.617 124.404 154.599 125.391 154.357C126.379 154.114 127.297 153.654 128.075 153.011C128.986 152.228 129.686 151.236 130.112 150.125C130.537 148.976 130.711 147.752 130.622 146.533C130.532 145.504 130.189 144.513 129.621 143.643C129.054 142.773 128.279 142.051 127.364 141.539C127.159 141.443 126.986 141.343 126.814 141.244L126.814 141.244C126.633 141.139 126.454 141.037 126.245 140.941C125.851 140.795 125.441 140.694 125.024 140.64L122.272 140.145L119.119 139.543L115.963 138.945L113.315 138.347C112.743 138.237 112.164 138.17 111.581 138.145C110.529 138.126 109.488 138.373 108.562 138.863C107.635 139.353 106.853 140.069 106.291 140.941L106.194 140.842ZM88.0713 137.448C88.5794 136.906 89.1615 136.436 89.8011 136.05H89.6959C90.6014 135.576 91.6154 135.336 92.642 135.353H93.1513C94.2139 135.495 95.2677 135.695 96.3078 135.951C97.033 136.181 97.7184 136.518 98.3407 136.949C98.9546 137.414 99.473 137.99 99.8684 138.644C100.287 139.272 100.533 139.995 100.584 140.743C100.664 141.48 100.594 142.226 100.378 142.937L99.8684 144.533C99.45 145.975 98.4646 147.195 97.1286 147.926C95.7926 148.656 94.2153 148.837 92.743 148.43C91.9785 148.149 91.197 147.915 90.403 147.729C89.0253 147.234 87.8701 146.279 87.1412 145.032C86.416 143.755 86.2331 142.25 86.6319 140.842L87.0528 139.444C87.2674 138.724 87.6124 138.048 88.0713 137.448Z" fill="#6D2EB1"/>
<path d="M246.248 134.37V117.288H261.407C265.367 117.288 268.195 116.27 270.118 114.121C272.042 111.971 273.06 109.03 273.06 105.07V91.1555C273.06 87.196 272.042 84.2546 270.118 82.1052C268.195 80.0689 265.254 78.9376 261.407 78.9376H246.248V62.0814H262.199C272.833 62.0814 280.639 64.5703 285.843 69.5479C291.047 74.5256 293.649 81.7657 293.649 91.0423V104.957C293.649 114.347 291.047 121.587 285.843 126.678C280.639 131.656 272.72 134.257 262.086 134.257H246.135L246.248 134.37ZM231.881 134.37V62.1945H252.017V134.37H231.881Z" fill="#6D2EB1"/>
<path d="M333.358 135.842C322.724 135.842 314.919 133.466 309.828 128.941C304.85 124.303 302.361 117.515 302.361 108.578V104.279C302.361 95.455 304.737 88.6674 309.375 84.0291C314.013 79.3908 320.914 77.1283 329.851 77.1283C335.847 77.1283 340.825 78.1464 344.784 80.0695C348.744 81.9927 351.798 84.9341 353.834 88.5542C355.871 92.2874 356.889 96.6995 356.889 102.017V103.714C356.889 105.184 356.889 106.768 356.663 108.352C356.55 109.935 356.323 111.293 356.097 112.651H338.223C338.336 110.388 338.449 108.125 338.562 106.202C338.562 104.166 338.562 102.356 338.562 100.772C338.562 98.8489 338.223 97.1519 337.657 95.7944C337.091 94.4369 336.073 93.4188 334.829 92.7401C333.585 92.0613 331.888 91.7218 329.851 91.7218C326.797 91.7218 324.535 92.5137 323.177 94.0975C321.82 95.6813 321.141 97.9439 321.141 100.772V107.899L321.254 111.406C321.254 112.537 321.48 113.669 321.82 114.8C322.272 115.931 322.951 116.836 324.082 117.741C325.214 118.533 326.797 119.212 328.833 119.778C330.87 120.23 333.584 120.457 336.865 120.457C340.146 120.457 343.427 120.23 346.708 119.665C349.876 119.099 353.043 118.42 355.984 117.402L354.401 131.882C351.799 133.127 348.744 134.145 345.124 134.824C341.504 135.503 337.545 135.842 333.246 135.842H333.358ZM312.995 112.651V100.885H352.251V112.651H312.995Z" fill="#6D2EB1"/>
<path d="M396.146 135.842C385.512 135.842 377.706 133.466 372.615 128.941C367.637 124.303 365.148 117.515 365.148 108.578V104.279C365.148 95.455 367.525 88.6674 372.163 84.0291C376.801 79.3908 383.702 77.1283 392.639 77.1283C398.635 77.1283 403.612 78.1464 407.571 80.0695C411.531 81.9927 414.586 84.9341 416.622 88.5542C418.659 92.2874 419.676 96.6995 419.676 102.017V103.714C419.676 105.184 419.677 106.768 419.45 108.352C419.337 109.935 419.111 111.293 418.884 112.651H401.01C401.124 110.388 401.236 108.125 401.349 106.202C401.349 104.166 401.349 102.356 401.349 100.772C401.349 98.8489 401.011 97.1519 400.445 95.7944C399.879 94.4369 398.861 93.4188 397.617 92.7401C396.372 92.0613 394.675 91.7218 392.639 91.7218C389.585 91.7218 387.322 92.5137 385.964 94.0975C384.607 95.6813 383.928 97.9439 383.928 100.772V107.899L384.041 111.406C384.041 112.537 384.267 113.669 384.607 114.8C385.059 115.931 385.738 116.836 386.869 117.741C388.001 118.533 389.584 119.212 391.621 119.778C393.657 120.23 396.372 120.457 399.653 120.457C402.934 120.457 406.327 120.23 409.495 119.665C412.663 119.099 415.83 118.42 418.772 117.402L417.188 131.882C414.586 133.127 411.531 134.145 407.911 134.824C404.291 135.503 400.332 135.842 396.033 135.842H396.146ZM375.782 112.651V100.885H414.925V112.651H375.782Z" fill="#6D2EB1"/>
<path d="M466.17 135.727C462.776 135.727 460.06 135.161 457.798 134.03C455.535 132.899 453.839 131.315 452.594 129.278C451.35 127.242 450.445 124.866 449.879 122.038H445.127L449.653 109.933C449.653 111.857 449.992 113.554 450.67 114.911C451.349 116.269 452.254 117.4 453.499 118.192C454.743 118.984 456.327 119.323 458.137 119.323C460.852 119.323 462.888 118.531 464.133 116.947C465.49 115.364 466.17 112.988 466.17 109.707V102.919C466.17 99.6388 465.49 97.2631 464.133 95.6793C462.775 94.0955 460.852 93.3035 458.137 93.3035C456.667 93.3035 455.423 93.5298 454.178 94.0955C452.934 94.6611 451.915 95.3399 451.123 96.245C450.332 97.15 449.653 98.1681 449.2 99.1862L444.675 91.041H449.879C450.445 88.439 451.35 86.1764 452.594 84.1401C453.839 82.1038 455.648 80.407 457.911 79.2757C460.173 78.0313 463.228 77.4656 466.735 77.4656C473.184 77.4656 477.935 79.6151 481.329 83.914C484.609 88.2129 486.306 94.661 486.306 103.372V109.255C486.306 118.079 484.609 124.64 481.329 129.052C478.048 133.577 472.957 135.727 466.17 135.727ZM429.855 153.827V78.71H449.766L449.087 94.5479L449.539 95.9056V116.495L449.2 119.776L449.766 134.256V153.714H429.855V153.827Z" fill="#6D2EB1"/>
<path d="M524.656 135.614C515.945 135.614 509.271 133.125 504.632 128.261C500.107 123.283 497.732 116.269 497.732 107.106V89.4575C497.732 80.4073 499.994 73.2802 504.632 68.4156C509.271 63.438 515.945 61.0623 524.656 61.0623C533.367 61.0623 540.042 63.5511 544.68 68.4156C549.319 73.3933 551.581 80.4073 551.581 89.4575V107.106C551.581 116.269 549.319 123.283 544.68 128.261C540.042 133.238 533.367 135.614 524.656 135.614ZM524.656 129.731C531.218 129.731 536.082 127.808 539.476 123.849C542.757 119.889 544.454 114.459 544.454 107.332V89.2312C544.454 82.1041 542.757 76.5609 539.476 72.7146C536.082 68.8682 531.218 66.9451 524.656 66.9451C518.095 66.9451 513.23 68.8682 509.837 72.7146C506.556 76.5609 504.859 82.1041 504.859 89.2312V107.332C504.859 114.459 506.556 120.002 509.837 123.849C513.117 127.695 518.095 129.731 524.656 129.731Z" fill="#6D2EB1"/>
<path d="M568.895 100.318L567.086 95.1141L568.782 94.8878C570.027 89.797 572.176 85.8376 575.344 82.8962C578.511 79.9549 582.584 78.4842 587.562 78.4842C588.919 78.4842 590.051 78.4842 591.069 78.8236C592.087 79.0499 592.992 79.2762 593.784 79.6156L594.236 86.2901C593.331 85.9507 592.2 85.7246 591.069 85.4983C589.824 85.2721 588.58 85.1589 587.11 85.1589C582.811 85.1589 579.078 86.4033 575.797 89.0053C572.516 91.6072 570.253 95.3404 568.782 100.431L568.895 100.318ZM562.447 134.37V79.2762H569.122L568.782 95.7929L569.348 96.3586V134.257H562.56L562.447 134.37Z" fill="#6D2EB1"/>
<path d="M599.553 134.37V79.2769H606.453V134.37H599.553ZM602.946 69.2084C601.476 69.2084 600.345 68.7559 599.553 67.964C598.761 67.1721 598.422 65.9276 598.422 64.3438V63.8914C598.422 62.4207 598.874 61.1763 599.553 60.3844C600.345 59.5925 601.476 59.14 602.946 59.14C604.417 59.14 605.661 59.5925 606.34 60.3844C607.132 61.1763 607.472 62.4207 607.472 63.8914V64.3438C607.472 65.9276 607.132 67.059 606.34 67.964C605.548 68.7559 604.417 69.2084 602.946 69.2084Z" fill="#6D2EB1"/>
<path d="M639.71 118.192C632.47 118.192 626.927 116.608 623.081 113.328C619.234 110.16 617.311 105.409 617.311 99.2998V97.3764C617.311 93.6432 618.103 90.3625 619.574 87.5343C621.045 84.7061 623.42 82.5567 626.701 80.8598C629.982 79.276 634.28 78.371 639.597 78.2579L666.975 77.5789V83.0092L648.874 82.5566C651.928 83.2354 654.417 84.1405 656.341 85.4981C658.264 86.8556 659.621 88.6656 660.413 90.7019C661.318 92.8513 661.657 95.227 661.657 97.9421V99.8653C661.657 105.748 659.847 110.273 656.114 113.328C652.381 116.382 646.951 117.966 639.71 117.966V118.192ZM639.371 149.981H640.502C644.122 149.981 647.29 149.755 649.892 149.189C652.494 148.624 654.53 147.719 656.001 146.474C657.472 145.23 658.15 143.533 658.15 141.497C658.15 139.008 657.246 137.085 655.662 135.84C653.965 134.596 651.023 133.691 647.064 133.351L631.791 131.994H634.167C631.678 132.333 629.529 132.786 627.719 133.578C625.909 134.256 624.438 135.275 623.307 136.519C622.175 137.763 621.723 139.347 621.723 141.157C621.723 143.42 622.515 145.23 623.873 146.474C625.343 147.719 627.38 148.624 629.981 149.189C632.583 149.755 635.751 149.981 639.258 149.981H639.371ZM638.918 155.638C634.167 155.638 629.982 155.185 626.475 154.393C622.968 153.601 620.253 152.244 618.216 150.321C616.293 148.511 615.275 145.909 615.275 142.741V142.515C615.275 140.139 615.84 138.216 617.085 136.632C618.216 135.048 619.913 133.917 621.949 133.012C623.985 132.107 626.248 131.541 628.624 131.315C625.117 130.636 622.515 129.844 620.931 128.6C619.348 127.356 618.442 125.659 618.442 123.509C618.442 122.039 618.782 120.907 619.461 119.889C620.139 118.871 621.157 118.079 622.515 117.513C623.872 116.948 625.683 116.608 627.945 116.495V115.477L636.995 117.966H632.696C629.755 117.966 627.606 118.305 626.475 118.984C625.343 119.663 624.777 120.681 624.777 122.039C624.777 123.509 625.569 124.64 627.04 125.319C628.624 126.111 631.226 126.564 635.072 127.016L648.308 128.374C654.078 128.939 658.15 130.297 660.752 132.446C663.354 134.596 664.599 137.65 664.599 141.61V141.836C664.599 145.117 663.58 147.832 661.544 149.868C659.508 151.904 656.68 153.375 653.059 154.393C649.439 155.411 645.14 155.864 640.163 155.864H638.693L638.918 155.638ZM639.597 113.101C642.991 113.101 645.819 112.536 648.195 111.518C650.458 110.499 652.268 108.916 653.399 106.879C654.53 104.843 655.209 102.241 655.209 99.2998V97.3764C655.209 94.4351 654.644 91.9464 653.512 89.9101C652.381 87.8738 650.684 86.2899 648.421 85.2718C646.159 84.2536 643.331 83.688 639.937 83.688H639.484C635.751 83.688 632.696 84.2536 630.434 85.3848C628.171 86.5161 626.474 88.1 625.343 90.2495C624.325 92.2858 623.76 94.7746 623.76 97.4897V99.2998C623.76 102.354 624.325 104.843 625.569 106.879C626.701 108.916 628.511 110.499 630.773 111.518C633.149 112.536 636.09 113.101 639.597 113.101Z" fill="#6D2EB1"/>
<path d="M672.181 134.37V79.2767H679.081V134.37H672.181ZM675.575 69.2083C674.104 69.2083 672.973 68.7558 672.181 67.9639C671.389 67.172 671.05 65.9275 671.05 64.3437V63.8912C671.05 62.4206 671.389 61.1762 672.181 60.3843C672.973 59.5924 674.104 59.1399 675.575 59.1399C677.045 59.1399 678.29 59.5924 678.969 60.3843C679.761 61.1762 680.1 62.4206 680.1 63.8912V64.3437C680.1 65.9275 679.761 67.0588 678.969 67.9639C678.177 68.7558 677.045 69.2083 675.575 69.2083Z" fill="#6D2EB1"/>
<path d="M728.853 134.37V99.7523C728.853 96.4716 728.401 93.6434 727.496 91.2677C726.591 88.892 725.12 87.082 723.083 85.8375C721.047 84.5931 718.332 83.9144 714.938 83.9144C711.771 83.9144 709.055 84.4799 706.68 85.7243C704.304 86.9687 702.494 88.5525 701.023 90.702C699.553 92.8514 698.648 95.2271 698.082 97.9422L696.724 92.8515H698.195C698.648 90.1364 699.666 87.6476 701.25 85.4982C702.833 83.3487 704.87 81.5387 707.585 80.1811C710.187 78.8236 713.467 78.1447 717.314 78.1447C721.726 78.1447 725.346 78.9366 727.948 80.6336C730.663 82.3305 732.586 84.7062 733.831 87.7607C735.075 90.9283 735.641 94.6615 735.641 99.0736V134.37H728.853ZM691.634 134.37V79.2761H698.421L698.082 92.8515L698.421 93.1908V134.257H691.634V134.37Z" fill="#6D2EB1"/>
</svg>
